<mxfile host="app.diagrams.net" modified="2023-12-03T23:42:01.642Z" agent="Mozilla/5.0 (Windows NT 10.0; Win64; x64) AppleWebKit/537.36 (KHTML, like Gecko) Chrome/119.0.0.0 Safari/537.36 Edg/119.0.0.0" etag="a-ekQjzvTmZWVWHCc52G" version="22.1.5" type="device" pages="2">
  <diagram name="Страница — 1" id="o3sYmgAIau1fM3dsohi6">
    <mxGraphModel dx="2320" dy="1200" grid="1" gridSize="10" guides="1" tooltips="1" connect="1" arrows="1" fold="1" page="1" pageScale="1" pageWidth="3300" pageHeight="2339" math="0" shadow="0">
      <root>
        <mxCell id="0" />
        <mxCell id="1" parent="0" />
        <mxCell id="QvXpTpCXxzrsCJCGJff7-1" value="" style="shape=image;imageAspect=0;verticalLabelPosition=bottom;verticalAlign=top;image=data:image/png,iVBORw0KGgoAAAANSUhEUgAAA48AAALnCAYAAAApuXKMAAAAAXNSR0IArs4c6QAACeF0RVh0bXhmaWxlACUzQ214ZmlsZSUyMGhvc3QlM0QlMjJhcHAuZGlhZ3JhbXMubmV0JTIyJTIwbW9kaWZpZWQlM0QlMjIyMDIzLTEyLTAzVDIzJTNBMzglM0E1OS42NjVaJTIyJTIwYWdlbnQlM0QlMjJNb3ppbGxhJTJGNS4wJTIwKFdpbmRvd3MlMjBOVCUyMDEwLjAlM0IlMjBXaW42NCUzQiUyMHg2NCklMjBBcHBsZVdlYktpdCUyRjUzNy4zNiUyMChLSFRNTCUyQyUyMGxpa2UlMjBHZWNrbyklMjBDaHJvbWUlMkYxMTkuMC4wLjAlMjBTYWZhcmklMkY1MzcuMzYlMjBFZGclMkYxMTkuMC4wLjAlMjIlMjBldGFnJTNEJTIycHpqa240Qmx0RXFmU2FpX1MxWTclMjIlMjB2ZXJzaW9uJTNEJTIyMjIuMS41JTIyJTIwdHlwZSUzRCUyMmRldmljZSUyMiUyMHBhZ2VzJTNEJTIyMiUyMiUzRSUzQ2RpYWdyYW0lMjBpZCUzRCUyMlkweTNjS3YtNEEyYUlNSElhMGtpJTIyJTIwbmFtZSUzRCUyMlBhZ2UtMSUyMiUzRTdadGRtNW82RUlCJTJGRFplN0Qwa1E1QktCJTJGVGluNm5sY3R1MHRsYXp5SEFRUHh1cjIxemNFZ21EU2xyWkVxM3U4d0RpRXIzY213MHd5YXNoZDdlJTJGemNMMGNaeEZPTktoSGV3MTVHb1RRc0F6NlZVaGVTd213RGIyVUxQSTRxbVFId1ZQOEJWZEMzbTBiUjNqVDZraXlMQ0h4dWkyY1oybUs1NlFsQyUyRk04MjdXN3ZXUkolMkI2cnJjSUVGd2RNOFRFVHBoemdpeTFJNkhPZ0glMkJRT09GMHQlMkJaYUJYZTFZaDcxd0pOc3N3eW5ZTkVmSTE1T1paUnNyV2F1JTJGaXBLREh1WlRIM1gxamIzMWpPVTVKbHdOZ2VjRG5NTmxXejFiZEYzbmxENXRuMnpUQ1JYOWRRNlBkTWliNGFSM09pNzA3cWw4cVc1SlZRbjhCMmhTdlg5M1NaNXdUdkclMkJJcXZ1NXg5a0trJTJGeVZkcW4yM2d3NHJjbzhicEJaQ1hZSDJEYTNoV1VEdElVcVlWZ3BlRkdmJTJGY0NBTmlvTWNpVG9xcERVcHZjN1NJd0xRQUtIcHlReUhQU01aRVB5N0YlMkZzWmttV1UwbUVYOEp0UW05NDlKS2xwSEtBQUo3U21vYkswSmtDdXVjbm4zN3BUcUFoUjhCSW40cDhqMVdhcGJnQUZTZkprU2hNNGtWS2Y4NHBLMHpsbzRKUlROMjRVJTJCMVl4VkZVWEVhcW5MYjZ6cVlIVTZLSFB0emMwTHBnQ3paZ0IzSUtUWGdvc0hPZWc0ZnBqTm12cmxGY0R0dU95cTJsVVVMRHBnU3dyYyUyRmtrRzB0SmhteXJWTzF5MVBaNVFrcEVwTUIlMkZaVFQxb0l3bE9aJTJGMnlKVUdEMWtoQVZaRDlsbUhSTnElMkJLVEFOUTVUR29xc0N0QjFUd1hqSzhFdjVNOGJYWjFzQk1oc3hPakRSR3pCUkR3bjhFc0RnZUFXZ0Z2NmpkNk1ObXFvMzlVR0FHcTBZZXVDTnY2WlRmJTJGeTNlQXdZZyUyRkRUUDklMkZYUDNVdUFJU1RWcUtYbHMyRURRNTg5OHpMWnJocWlDUWZ0cXMyYVBxeHlKb3ZMMWhoJTJCemJ3Ykc2TEM1cURUMUZqdER1TzhYc0dtYzBkYVZSMjJPZm5yQ0NMdDRNRGtTaVhQWmJSUHZPVUU4WnVZbmtrR2lNeXNqMW5jaWVsNXpFN3lvamQ4bjVya0N1VHQ5UFFVNU1keSUyQkhuSG44N3BDNU9WMUNycGMweXhaVDFBJTJGVDJkJTJCUGslMkZ2VEVEeDZ0ZmRpaXFBRFVUQlVaWXRpM3VyTm5MdmdpbkJLM2licWNJbzUzc3gzcCUyQk94UCUyRkY4NzRxZ3lnSjhWVkJyejlITTFaNUg3eDVkSjNpY1RxNkhxdXdscEpDcW1EZGRLa3FyeTB5Q0lVbG4lMkJnRjVybnptQkNCbHpsTWR5SE9sTVNjQUtYT1k2a0NlSzZ0UkQxTHFJOVdCRkpPY21lOTQlMkZrekFlYlZyVWwxOHEyeEZxaCUyRiUyQllxckU1c3pmREgwb0xnaEN5VnlkT2dXSUFTMWZkTnFzdzdTbEJUN3ZYV0M0MlRBTzVkTEdlcTgxVjZiNFdwV2o4MVBSMnlqUHhoZXhMaVFiJTJGdlhBbzVkc3VKNmhiV2pIblU0QyUyRjZPaVpmTSUyRmNrYTdreElzV1JUZGl3b2tVVFJiT2hvQTVXWU1nVGlwZmNjJTJCUFdVb1hTcHFwT3VsUFpuM0dRSnIxVXlCOVdPa1VLSEhFQ1BEeWRUekw2UEt4amloV2FzcXNxbVQlMkZxWUduc2VqaXdncGUxSkFsekZnMnFyNG4yUDIzVkRyVkJCcUElMkIxYXZkZlBHMUNja3c4ZWczZHZ6S2NnZUU2ZklzN2klMkYzU1VEcjhScGJNU0dJTVZwQ0ZXaE9ieGdqUXFNWG1KR20zZmFjMHlHWDVZWGROV1ZybTVqUU4wdnBkdVlhTVN6bXZVdlEwMFdCZk0xUjJjZGlFZGF6ZnZ1MU5PY2IybUNBOHBJdmNIa3RrbkpLdkglMkJZWHlEdnJ6OE9jRXRxJTJGeEh3JTJGa2Z3VSUzRCUzQyUyRmRpYWdyYW0lM0UlM0NkaWFncmFtJTIwaWQlM0QlMjJzdG1kaEhnbGVfc0w0SGFqSkJqSCUyMiUyMG5hbWUlM0QlMjIlRDAlQTElRDElODIlRDElODAlRDAlQjAlRDAlQkQlRDAlQjglRDElODYlRDAlQjAlMjAlRTIlODAlOTQlMjAyJTIyJTNFblpLeERvSXdFSWFmcG52dEVhS3JGWFZ4WW5CdWFJVW1oU09sQnZUcEJRdGl3MEEwYWRMayUyQjclMkZjWFM4bHdNdnVaRVZkWEZBcVF4aVZIWUVEWVd3VHM2aSUyRkJ2THdaQnRSRDNLcjVTak5JTlZQTmNKSnUydXBta0IwaU1icE9vUVpWcFhLWE1DRXRkaUcyZzFOMkxVV3VWcUFOQk5tU2E5YXVzSlRBRXJuNEt4MFhveXQlMkIyam5rMUpNOXFnMmhaRFlmaUZJQ0lzSmcwNFEySk9CaFFlNFJYU3IyaVNYSFZkbTJQNjBXTiUyRjMlMkJIJTJCQnolMkJPdHF0eHZOWUgzMXNyNGJ5ZjRPWkM4QUElM0QlM0QlM0MlMkZkaWFncmFtJTNFJTNDJTJGbXhmaWxlJTNF+BXYrAAAIABJREFUeF7s3XusNVV9P/4xTS9aBEvaikF6gcYSUkGltpVQ24rQ9g8bLoHiDQEtKCLRIBRB0IIXgl9iglTAC6WAihKV1D+MUlprEYxUK9ISa4TaAIImRUFoWq15vvnM77fOd515Zs7e5zyz9tlrz+skxodz9p41n9das2e/Z83lCY0fAgQIECBAgAABAgQIECAwQ+AJhAgQIECAAAECBAgQIECAwCyBCI87Zr3I3wkQIECAAAECBAgQIEBg2gJteNyxQ37c6jB4whOeEIBbfbv3ESBAYFAgPl8W8eMzbBHK2tguAfvp7ZKvs92pjZep1VvnqFyetY7xIjzuYn/Y6HYR0NsJEBAejQECBQXspwviruCipzZeplbvCg7ZhZYkPI7AbaMbAdEiCBDoFTDzaGAQ2HUB++ldN5zSEqY2XqZW75TGcolahccRVG10IyBaBAECwqMxQKCQgP10IdgVXezUxsvU6l3RYbuwsoTHEahtdCMgWgQBAsKjMUCgkID9dCHYFV1s33h517ve1Zx99tnrKj7yyCOba665ptljjz3W/f41r3lN89BDD6397ROf+ERzzDHH9Gp9/OMfb+65556dlh0vfvWrX91cccUVxZW79XbX95JLLmnOOuusdeux0Wvuu+++tt6DDz543fqH4b333ttcfPHFzYknntjcdNNNO9UWpm9/+9vbv99xxx3r/r7ffvs11113XfPggw+2XvHv5z3vee1rbr/99ublL395E+t68803N1deeeVOy37uc5/bhPc+++xT3HSVGxAeR+hdO6UREC2CAAHh0RggUEjAfroQ7Ioudig83nbbbevCYjckphATASZ+IuCkcJOo4j3xk4fCCFXdZS+SNq83QmEezB555JE2yB1yyCFrATLW98Ybb1wLYuk1e+21V1tXCo8PP/zwuoCXwmNee4S+M844o7nsssvWrNL7zznnnOboo4/upcjN4gXddYzfzbOcRTqvSlvC4wg9aac0AqJFECAgPBoDBAoJ2E8Xgl3Rxc4bHvvCSYSa9BOzbN2Zw2UOj31BMQXiCy64oLn66qvb0k4++eTmwgsvXBeMwyL9/ulPf3r77wiTjz322FrgHjM85usa69QXvrv9k69jN9Sv6FAuUpbwOAJr34dM39GooSMgm53G7x6J6dsY5zmdoHs6wNDpF12iqK17OsCiTwVIHxr5KQ99p1WM0L3FFtE9upc3NM8pI8VWzIKXSmCRN8yJbXvfffddO7qcTgM69dRT1/0uP0rc3Ra7nwVpGXFaVv6Tn47V92UqfhenHsVpSddee+3aevWtUyy3u+6r8BmxVAOx8pXp20+nffJG+8Kh8dsd592Zl8TV9/506l368tq3T433p31a39+7y6i8e5Zu9ecNj93PnhgHp59+enPaaac1EaDSZ2V+muQyh8e+WcBu58T3k/hc7p6um4e5448/vg2PcaprhOc4nTRmEMcMjynUxrLjJz+FNa2zmccym5bwOIJr90MmNr6+UxZmhcetTuN3N8Z5TyfIQ+jQ0aY+nqEPvr4jbCPw9i7ijW98Y3s+fa1HjtIOJoo78MAD111LMM8pI6VcLXf5BBYZHrufJTEW3/nOdzb7779/c/nll7fX9eRfHB599NF2Ozz22GPXxnB3/M5zSlL3M6V78C0PhunL+J577rnu2pX8NX3X2/gSsXxje5FrtFF43GhfOM+X6agjbRfx7zj9LoWFvvd3t5G+fWpus4xhY5F9tx1tbTU8Rn+/973vXfu8jL47/PDD1516OdSf3espo+64Pm/otM0xXVK9sf5phnHousCh8JgH6RQeY3Yyrk+MaxyjlhtuuKG95nHe77uzJjnSd9dou+/aU5/7Y46S/7es3vA49GHZPbLbvXg4n/npu7A4mk1Hmzdz4XFa3b4je0NH7BY5E9b9kBk6ZWER4XFoSr57OkF84dtoBnOjD5C+D778w+SWW25Zd2F4+vDLj8CmcZDaOeigg5pLL7206R5NzcdJ+lsczfvgBz/YfOc731mbAc3HXnfGIdqPn+7F6jFG4kP9KU95ytoX3zTGTznllLWjhxFQ820ilpV2DlFrfCjGh1Z8yY6jjd3X9wXctIOJI2ZRY5wKEh/U85wy4kLvMh+Gy7rURYbH7nYf20Mc3IjtO52ilD7f4ohy31HkcMx/P8/+JP9M6bv2pxse48vNbrvt1p4Slb6E5K8Zun5oaH2Xte+t13gC84bHecdvd81SSIjZ8u7sffd6rvQlO/4/xu9WwuM8X/LH05vekuYNj919dt932+5Nb5bxYEAeHvvGaz4CNhse4ztQ+nyO5WwmPG50zWPaVj/72c+2q3fEEUfsdFMf4bHMtrvl8Nid3UodlI5Az7r4d+gLQn53qm7JQ0f24nXbOUDyD5mNTllYRHic93SCbnjc1ZnH9GF4wgknrLvwOfVzHImND6QIS4cddthaMIu+i99FiIudaD4uUjBLd8bK24j3pFPpuq75rEUsI7/wu+uTfxHOj5p1w2N+Cl0Kj+94xzuac889tw2MBxxwwLqwmb++Lzzm7eZHJuc9yl3m48BSl1FgkeEx//zKx3ScNhrbaGy7cVOCtB2nf3ePjMd2lo4033///TNvhpC27fjSnd+EIfVHX3i86KKLmvPPP38t1OYHfvpunLCMfWudFicwb3js7gvn+UyOfVD6wh3jPZ95Gnp/vi+KL8gpSPaJLGPYWFzPbU9L84bH/PtHHJDufrfqO6C/jP2Z6h36LpiP8eiRea95TAcd03YQZ7HEgb95Zx43Co/dg/p9oXc7s8H2jNzFtLrl8Dhr8L/vfe/b8M5RfeFxVicPHdnrC4+LvCg2/5DZ6JSFscJjdxo/6k9HtuY9IhQfcN3lzHtL6L7Z3qHrJfvWJ304xRfQpz3taeu+WG7Ub2nWIAJq97SK7nWj6fz67gfhVsJjnHLxyU9+st0iIyim8BhHueIC7fgQzL90d1/fDY/5a+NvsU5xtDqW42jyYj74amplkeExP4By6KGHrpthjzEaB0vSDnr33XdfC5Ld8JiP4/gyHdtj95rH/GyB/DOl76yRvvAYs/VxClS6SUJ8yYjwGQd+uqE2X/6813bXNEas62yBzVzzmO8L57lmN/8M736+zxseu/cRyM/C6dvnLvLsqtm6q/eKecNj92B1OmiWzhDqC2Ozvj93H/uxCN283qFLZ/IzPea5PKobMNOsbPe75jyXNnQNuhNW8fet5IpF2K5iG1sOj+mGHkM74q3MPOZfXLrPk9noyF5feFxkZ+Ub3UanLIwVHjc63XQz4TEtZ54jq7nnPKfY5DvCfIykcdM9bTWdtpmHx5j56D4HKN4X4TE/shvrlnbe8eW2e+Qv/+LZ9en+d/e01fjSGxdhp/9P4TH++5nPfObaOfbpC0Pf67vhse/LSPoi0DdLs8ixrK3lE1h0eEzbUsw0RuCLz+L8NOvYHuL6x/gZmnnshsf8iHA+K5m+YMV29+Uvf7m9JiZm9LtnoAyFxzzAptMFU3jMbyufenWjz8fl63lrNKbAPDOPffvCefaPfeEuHRwZen/+HWkzM4+bOUtoTL+pLWsoPG70nMeh70bdoDUUHvuueVzUwa5uvd2b9vVNLnRfkx8Q7JsI2OimUkOP6uibLIl9ULocKb/OsW/57rZaZsvdcniM1eleW5YP8qFrHtP1b0PhMv+SkJe80ZG9ZQmPfeGwLwylWbFUX98HyWaOxOTX8Wz1msfuh9tGw22j8Nj9Yjj0ZS31c8xu5B8aed233nrrutnrVGc++5G+fG515jEdsMjDbnwAptNW4+hvXFsZRxPTHdTiPRFeU1BMX6Tj732vn+cZT7NOucsPnrjmscyH4bIuddHhMcZaBLi4vfpRRx3V3qwhPuvjC25c/xi/Twf3tnrNY360Po6y558pQ0fq03Vk3dn59Jmz9957rz2HbGj/Ijwu6ygvv17zhMc0e5GfOj0rPA4FznR2zNABwXzMz3NANtYtneqXDkDGvmoRN1Mp3zvL10LfeFm+tRxvjaZW73hy01zSLoXHLln+AbiVmceNjqhtdGRvWcJj3xH1bk3dL01DO4Gthse+nV/3aExfyN3M0cx5w2OaFYh1evvb396cd955a3ehy8Njfv1iPm7yU5/TXR0PPvjgtRsMpC+T3cDcPY1ko2se+8ZwfurbXXfd1c485td/pfAYoTHWMX7SbEff6/PwuNHsczr9rnud5tDRutIfWWldu0f++u7+1l3H7oGlfF3jIFOMh5i16i57ntvPb3TQKrUz72nrQ6+bdfpw94hrbpK75QfUujPO+VHa/G/d09EWHR7TLHqExPyukXGH48cff7yd+U9juu/Uoe4pT/N8lnU/U7qfi0Mzj/nMZRwASqZpvdLnRb6PiJDZd1e+0tuT5W+vwLzhcbPXPM46Va57aUYodLeRzYbHtJ/fzofKb29vlm99amFqavWWH0Gr3UJveNxoujlOBereTCQR5Ud1x7zmcdaRvfgCMet6yZLdmDa6zZyykM909X0Zn+cLV6qp7+j/rNMJ+u62mu/QYtlDt2veaEeXf7GPIHDmmWe2O8p0fVI6LSN9qb777rvbduIC6nhmY/7FOf8SHr8/6aSTmrirVnzxi5/8lNZZd1tNR2dnzTwMzQDm17Hk4TFCbZzXH3XFbGQ6Va573Uu+jXSviYi/db8sz3PKSMkxPXRAZuhgR3KN9+WBI9U2dErKrDup9dWY32yo76BHGjcPP/xw73Of8oAZ20H3danG7qMg8vflz+7KDxqlAyZpHKRtJZ+57t6Nt3uzpe6X0UWHx6Evpn0Hx+K13TDf95zHvhsZ5Gc7xExn/OQ3UUhnr8TnY34Hy75g3xdiY3ndg461PQu29DY+peXPGx674S7+u++a3di/xXjNP/dzz3QQMy51iH/n1/zO+5zHdKpg3z53aMxPqU9L1jq1MDW1ekuOnSksuzc89s10dI+Udb/gdN+zlZnH7qxcHo66R9j6zmPuC0SL6EQb3daVZ83wbH3J3rmrAvPMkqYL+2PbjWvkurep32p4nHfmsBt04mBEfNFLBy3Snd66Fikgdl+XPufygx6zThPOnSI45TcJmBW4+q7L624T2xEed3XseD+BZROwn162Hlnu9ZnaeJlavcs9+pZ/7XrDY9/R5L7TybrXNeYX1A5d85hmnGJmcqMLjxPdrFNZ040V0mmNaSZjM18+d7WbbHRbFxQet25X+p1D4bHbZ7NuZrWZWfSt1DR0VL7vVuLd5W/1tNV8OXl98ft8xn7oeqmNzpRYhpnHrfSD9xBYZgH76WXuneVbt6mNl6nVu3wjrq41GgyPdZWxvWtro9tef62XEZg3PM66mdVG4bF7zeNm7yw3NLM378GjXQ2PfY+CyU9LHgqPG52GFib5qexmHsuMb0udloD99LT6e1erndp4mVq9uzo+pv5+4XGEEWCjGwHRIpZOYCg8dgPbrJtZlZp57J5KnwMuIjz2nd7fnZXtq33o9Py0/l134XHpNg0rVKGA/XSFnbaNqzy18TK1erdxaK1E08LjCN1ooxsB0SKWTmCeax7jGsPuzVDmCVC7eoOrWY+WKR0eh25W0W2372Y6+YOW+zq9O5spPC7dpmGFKhSwn66w07Zxlac2XqZW7zYOrZVoWngcoRttdCMgWsTSCfQFvO7dVmfdpj7ucjv2zOPQqaqLmnnc6DrsvkfzxHrFXRmH7lLcDZxdL+Fx6TYNK1ShgP10hZ22jas8tfEytXq3cWitRNPC4wjdmDa69AiBdHOheKRE3MAnfXlMTc17k5ihB3B3Vzl/Blr+t6Ev9vPcSGQrLPl6DK1Tvtz0RTvujhnPwsofqjz0mJCNZmrSMxbz5yqmGzdN5Rb9eRAJq7iNfIzB17/+9c3QnUeH+jp/VEr+mnQ93rw3s+qbnRxadrQTy+/etTRvv+802e61kn0zj31jct5rHruufbfuTy55bWm90g29utd4pnHZfQakax638gnkPQSGBXw5Njo2IzC18TK1ejczFrx2ZwHhcYRR0Rce45EFQ7MNqxoeu1/w99133+ass84aFM7DY3oOY7x4Xp+04LScH/zgB80f/uEfrrWZnrX49a9/vTnuuOM2XJcRhsFSLGIoPL75zW/e6fmLS7HCVmKmgJnHmUReQGCmgC/HM4m8IBOY2niZWr0G+64JCI+75te+O210cTpd/MQs2le/+tX2NLW+U9X6rglLMxnpAdsxQxHPrYyf9AiUfHYifxD3rsw8dh/wnc945DM8+TrErOBBBx3UXHrppU3+CJe0HrHO6TEsMbNyyimnNCeeeGJz0003tfWk2Zj4d/w+n3l829ve1rzuda9rov6o8dd//debAw88cC345Q+I74bHWKd4EPPll1/exPMHwytm3uInLaM749Wta7fddltbz9wif/RMXnN3lumxxx5bm+Eb6q8YJ9ddd10TbV1//fVtnTE7GGax/vksabw2jYOuW1w7d+WVV66NkbjLZ3KOdfw//+f/tOPwDW94Q/Pud7+7/f/0XMYRhr1FLEhgUeFxQeVohgABAlUI7Nixo4r1HGMlhccxFKezDOFxhL7eaKObFR6j+QgHxx57bBuQ8jsxxrMw77333nYGs3v9Wf66CB59s3zznLaaL+eWW25pA0wEmwcffLD9/zj1Nn5OP/305rTTTmv/HWEvHggf65W3ka9H9xTWeF+3jsMOO2yn8Hj11Vc3999//9oprBEi+9YjPzU1BeAjjjiiibCVTs9MQTMMwyeF2PRg9u7z+aKuU089dad+CJf88Qt5n+b/jvauuuqqdn2f/vSnt/2anjvadY6/RThNBg888ED731Fvaisc0s1oDjjggNYqAmMKiWEa/ZP3W7Rb6rTkETYVi9iCwCJ26otoYwulewuB0QSM8dEoJ7GgqY2XqdU7iUFcsEjhcQTcWeExzQ7lTaWZwzwo7bPPPutuLnLrrbeuhcfuTULy2ct3vOMdg+ExzQDmbaeZsxRIIjTFaaP5NWz5dZv5bFX3Zh75aZLXXnvt2noMzYbmp6rOEx5jvVOACquYSUwzi6mmfJlxunAKiinw5uuVO3RP8czvGppmByOcdWfr0rWo55577rqgli8vwnf3eX/pOs48IEaf51Z5v95www3Nbbfd1gbEWIe0TpdddllrkkJw3q7wOMIGvWSLWMROfRFtLBmr1ZmYgDE+sQ7fxXKnNl6mVu8uDo/Jv114HGEIzAqPadYtNZUHhG6QyINANzym0xfTclLAGwpHs2Yeu7Njsdw8yOSnauY39shvZjNPeOzeDCTayWfdZt0wJ9YpZjrjlM746V5HmYfH+HsEyBNOOGFt9jIP1/lpoPHaZBj/zuvKw2P8LT/tNv47TneNNvLA2Q2PQ/2Vz+pGKNwoPHbDfxx0iDB53nnntTPAEfqFxxE24iVexCJ26otoY4mJrdoEBIzxCXTyiCVObbxMrd4Rh8okFyU8jtDtuxIeNzPzmE7f7M6EbfWax41mHvOA1r0rah6Y8pnIvpnH7qmim515jJm5CHKf/OQn256KU2fzU1bjd/kyI1zF+kUofPzxx9duWhSzkccff/y6U0m7M49D4TFOH85nAOedeRzqr+6s5kbhMZ22nA/T7o2GhMcRNuIlXsQiduqLaGOJia3aBASM8Ql08oglTm28TK3eEYfKJBclPI7Q7bsSHqP5rVzzmD8kfaPTVvPQE211H00wdM1jPuuZ7lqaX/OYrg2cdc1jNzymmb/NzDym6z333nvvtVM4h8JUOhU2bs6TbniTwlk3PObXKG4085iHx/TIhYMPPninu+ludM1j3l/5dZwbzTzm1zxGYE59lU5bNfM4wsZbwSIWsVNfRBsVUFvFFRYwxle4cwuUNrXxMrV6CwyZSS1SeByhu3clPKbrHLt3W00zbhEs++622neX0+7pnLNOW41AMnS31e7vu6etpruSDt31NX++YqxrfufYIM9vYNM9bTUF6vj/CIDd6wK7XdadicuDWve9+am4b3nLW5o777xz3d1e44Y9yT7NHObP6It6TzrppOazn/1sG2Tzv5155pnt8tINe/LTdfP+mnfmMR8DUXOy3n333dduNNQ9bTXNJvc983KEoW4R2yCwiJ36ItrYBjpNElgTMMYNhs0ITG28TK3ezYwFr91ZQHgcYVRMaaPb7DMYR+DdabZ0jGWWWEb3pkYl2rDM6Qks4vNlEW1Mr+dUvEwCxvgy9cbyr8vUxsvU6l3+Ebjcayg8jtA/U9roFh0e0+xdOk12hO4abRHd2dl8dnG0Rixo8gKL+HxJbXSfg5rw82ee9t0AK16XzpDIOywOqKTH/+TXKufPkE2vj+0nHucTd1ROz4TNl5Wec+pZpZPfJLYEsIjtaEsr5k1LKTC18TK1epdy0FW0UsLjCJ1loxsB0SIIEOgVWMTnSzc8pueTxgqlsBinrsdp0t3H9cRrus+hjd+la6Xj3wceeOC6uyT3Pf+2W3xfO4YIga0KLGI72uq6ed/yCUxtvEyt3uUbcXWtkfA4Qn/Z6EZAtAgCBJYyPMZK5ddP33333eseUZNWunvX5wh/MYsY1zTH+9P1xPF64dFgX7SA/fSixetub2rjZWr11j06t3/thccR+sBGNwKiRRAgsLThMT9dvXsX4FjpvpnHCIzxEzfySs9qjZlL4dFA3w4B++ntUK+3zamNl6nVW+/IXI41Fx5H6Acb3QiIFkGAQDXhMd0dOl/hdEfm+F3+eJ+41jGufbz55pvbaxpTeLzyyivX1ZtfVxl/cNqqDWJMAfvpMTVXf1lTGy9Tq3f1R3DZCoXHEXxtdCMgWgQBAksbHvM7CXdnHvvuMtx3U53uY32i2BQm+woXHm0QYwrYT4+pufrLmtp4mVq9qz+Cy1YoPI7ga6MbAdEiCBBY2vA465rHOC31oYceap99GndD7bumMb8m0jWPBvuiBeynFy1ed3tTGy9Tq7fu0bn9ay88jtAHNroREC2CAIGlDI+bvdtqzDAec8wxTX7H1igsD6DxNzOPBvwiBeynF6ldf1tTGy9Tq7f+Ebq9FQiPI/jb6EZAtAgCBJYmPN5xxx3r1qX7nMczzjijueyyy5r82Y0RDm+88cbmVa96VfOBD3ygiffss88+a8vJQ2hc/yg8GvCLFLCfXqR2/W1NbbxMrd76R+j2ViA8juBvoxsB0SIIENj28KgLCKyqgP30qvZsmbqmNl6mVm+ZUTOdpQqPI/S1jW4ERIsgQEB4NAYIFBKwny4Eu6KLndp4mVq9adh+5StfaV760pc2X//615v3vOc9zemnn77hiP7qV7/avPWtb20+97nPNT/+8Y+bZz/72c1rX/va5rjjjmvCcCo/wuMIPT3VjW4EOosgQGCGwCI+XxbRho4msJ0Cxvh26tfX9tTGy9TqTSMyLreIx0w98YlPbJ75zGc21113XbPnnnv2Dti4s/jrX//65kc/+lHzwhe+sPmpn/qpNkR+97vfbd7ylrc0Z5555mQCpPA4wmfaVDe6EegsggAB4dEYIFBcwH66OPFKNTC18TK1emOwPvzww008szjCYFyf/5nPfKa59tprmxe84AU7jeUIiK94xSuab33rW8373//+5tBDD21f881vfrM56aSTmu9///vte2Mmcgo/wuMIvTzFjW4ENosgQGAOgUV8viyijTlK9RICxQSM8WK0K7ngqY2XqdUbg/ZTn/pUc/LJJzcnnnhi8/znP7/9dwTEmI3snoKaXtv39+uvv759PNUFF1zQnHXWWSu5PXSLEh5H6OYpbnQjsFkEAQJzCCzi82URbcxRqpcQKCZgjBejXckFT228TK3eHTt2tEHvr//6r5urr766iUdMvfjFL25+8IMfNB/+8IebZzzjGevGdZyWeuGFFzYf/ehH2+sb858777yzvW7ywAMPbO80/qQnPWklt4m8KOFxhC6e2kY3AplFECAwp8AiPl8W0cac5XoZgSICxngR1pVd6NTGy9Tq/cY3vtG85CUvaZ785Cc3H/nIR5q99tqrueiii9rZw74b58TMYjxiKq6JzB9RFRvAfffd1z7bOK6VjFnIn//5n1/Z7SIVJjyO0MVT2+hGILMIAgTmFFjE58si2pizXC8jUETAGC/CurILndp4mVq9V155ZXuqacwmnn/++e04/od/+IfmhBNOaH7jN35j3Y1zYjYyrmuMO632hce43jFOZ33wwQd3er7xqm4gwuMIPTu1jW4EMosgQGBOge61F3O+zcsIECBAYBcE4tTGqfxM6Xvs448/3l7f+MUvfrG9yc3v/d7vtd2cfv93f/d37amsL3rRi9rfP/LII+11kXfddVdveEx/f+CBB4THqWwwY9Q5pY1uDC/LIEBgfoFFfL4soo35K/ZKAuMLGOPjm67yEqc2XqZUb5phfM5zntNcc801zR577LE2lC+//PLmda97XfOqV72q+cu//Mv2cRxmHnfe0s08jvDpN6WNbgQuiyBAYBMCi/h8WUQbmyjZSwmMLmCMj0660guc2niZUr3p5jcbDeD999+/+dCHPtREwIwf1zyu1xIeR/j4Sxtdumj2jjvuWLfUV7/61c0VV1yxdlFt9+9HHnnkTkc/4mGkcQFu+omHmPbdAjhed/HFF7dT5fET7+kuf7/99ls31T607DT1ftNNN+2k0reO3RfFcs8+++zeaf1564lbJMdPWuc4KnTOOee0vwvD9HP77be3FzbHqQXxfJ6hn3lfF+sX57J3j0KNMDwsgsAuCSxip76INnYJwZsJ7KKAMb6LgBN7+9TGy1TqjVNL40Y58bzGP/qjP2p+5md+ZqeR/c///M/NP/7jP667HjK+Z7/pTW9qv2sfffTR697jbqsT+3AYq9xueIywkwZXCmTxINK4FXCEu76/H3LIIWvhMALUjTfeuHbudFpG3A0qD1Cx/n3hMV/+rICXlp23H++J0HXGGWc0l1122U6TYsQ7AAAgAElEQVR3lupzi+Wcfvrp7Z/idsV50O2GyqE24715eIw7W0W9ccRHeBxrtFpObQKL2Kkvoo3a3K3vagkY46vVn6Wrmdp4mUq96ZmMxx9//Nppqd2xlJ7peMABB7SP7dh7772bT3/60+3NdPqe8xjXTcbvhyZ5So/V7Vi+mccR1DcKj7H4CD/77rtvE4O1Gx5TYLr33nvXZifjQt64A1R+O+CY1ez7/WbC40ZBsTuL1w2Ps2bw4u/vfe97mwjJEQDTjOBm2kxhOP7/aU97Wntnq7CbJzxG+9H2Pffc04b07kxs+t3999+/0+ti5tLM4wgbgkUUEVjETn0RbRTBsVACcwoY43NCeVkrMLXxMoV6f/jDHzavfe1rmxtuuKH9vv2yl72sd7Q//PDD7ffEz3/+82uv+/a3v92+Pu6oGndqTTfZ+eY3v9neiTXuuBoh8tnPfvYktiDhcYRu3ig8plNZYzZwnpnHoRAzFMI2Ex43M5u4mdemABz/HzOOEfYOP/zwdvZ1s8vp645Z4THeE6H82GOPXWv/oYceak9Bvfvuu9dOb02vSzOzsdz0ultuucVpqyNsCxYxvsAiduqLaGN8GUskML+AMT6/lVcKj6s4Br7yla80L33pS5tf/MVfXJtRHKozJkHiMqwXv/jFzQc+8IHmSU96UvPRj360ef3rX9++5YUvfGF7M53Pfe5zzXe/+90mrqM888wz24MOU/gRHkfo5VnXPKap7FnXRMaqbDQDlmYwu6eEzrrmMV2vmAepja4TjPXYTOhLp6yedtpp7Wxp1JBOOZ01YzkPf9QdR3q6P/lsYj5zmq97vCf9La4FTVZRf75u8TfXPM7TG16zaIFFfOldRBuLdtMegVzAGDceNiMwtfEyhXpTIHzjG9+4donU0JhIQTP+nt845+///u+bSy+9tLn11lubH//4x+1MY8xmHnfccZMJjmEiPG7m02TgtbNOW01vy2chh2blxgiPQ9c8biYQbva16ZTRVGse7DZz7WQf8ayZx24ozE/x7YbH/CZE8bd0Y544FUF43Fl/6IBHfgOl/JThfAlpDLzjHe9of929XrevX+fdHLttDl1rME8bQwc4YkeTTicfGpfpoEaqNR2Uydcv3TArHZTJt5V8vdOOLV6Xv2cRO/VZB8A209/JIK8naureaKB7g66uYbrJVm4Ry0ljMi0ztv/Yrme9Lj9lvW+cpr+feuqp667Zzg/a9R3Iytsd2l7S58zTn/703pua9d2EYd5twevmE1jEdjTfmnhVDQJTGy9Tq7eGMbjM6yg8jtA7Ww2P0XT35jhD1zbmv4/zquMaypiB3Mxpq0OnvsayU8DLv/zOG/r6vqCnL1ynnHJK+3DV7g15+toc6opZ4TG+9M078zgUEF3z2K/fPeARr+qOo1kHGvIxmsZX33Ln3RS7M91D7Q+Fj7ydFPL23HPPdQ/3TcGnG0jSe/PZ9fhdPkbz2g477LC18R/bQtxUKs3Qd2fI45rheMZU/OTbzCJ26ht9hm22v4c+1/LrvZNROtU83tO9sVb89zvf+c7mKU95yrq7Knd/H+FxntfF58RGn2lDY6EbHvMDId2bmc0a131/T+3GgYTuXfzm3Sa8brbAIraj2WvhFbUITG28TK3eWsbhsq6n8DhCz+xKeOwLdLPutprPiMS/b7vttvb6vkcffbT3hjx5iUN3Pu3eyXVWIEjLHPqylK9XXE+YP8Jjo7vH9nXHrPAY79nKNY+5s9NW5w+PKRykWblZY6VvjOSBMmYm08GQrWyOfdtQOjgRy+u7S3EeVuI6hVifdJOndC3sQQcd1HznO9/Zaca0bx3zeroHM/JtIX8Y8ay7DiffRezUZ32G5Z85W+nv5J0O3rzvfe/rndXN20kHdHbbbbfmqKOOWgtW0T9PfepTmy984Qttn6Vtd9br5gmPcRAqlpOPmY3CY9SVe6SZxaGzP+b5vMzHyFa2B+/pF1jEdsR+dQSmNl6mVu/qjNTtqUR4HMF91hevWUGr7/mIGz0XMT/dK3+G49ApU9F+flpUd9l9syvz3m21b1YpfaGK0/PS0fR52hzqilnhMV2/2L3bavy+e4pbfupabmfmcf7wuJWZqG4f9l2/u9VNse8LeVp+BLD46Z4ym7e11dNW82V0D5bkM9xD28hQkOj6LmKnPubM41C9ySt/fFF3pi1/bwqFeYhPBwViW48+zcPjrNfNGx4vuuii5vzzz1+74/Ws8DjrcUz5OBnq8zGuDd/q9jOV9y1iO5qK5RTqnNp4mVq9UxjDJWsUHkfQtdGNgGgRSykwz02ehq55zA9K5OE8Zsj7HjuzVYBuME2PjYlTQGMGqHR47B5o6c40DoWpvoMi6SBLfv3fIj5fZl3zuNF1m6nf0mtmHYjZKDz23cQqnNLjfyJQxs244nlb+Y2wIqzPet3QNY9pvfO241bu6YyOGENpZryvz/rCY6xn/pOuGR06O0R43OrWP//7FrEdzb82XrnsAlMbL1Ord9nH37Kvn/A4Qg/Z6EZAtIilFJjnJk+zTmOMwvJrduMuZemL+a6eopc/biWW1b0esuQNc6KuvuvVuuGpLzx217vb+fl7fumXfqnZsWNH0fExNPPY17ez+ntXZh77wuNll13WnHvuue21oul670MPPXSn8DjrdfPOPMZs5u67795edxoznBFWNwqPsx7HNM/M4yyzop0/kYXbT0+ko0cqc2rjZWr1jjRMJrsY4XGErrfRjYBoEUsp0HeaXfea3FlhIgpLszNxauGdd97ZfinflZuDDF03O88saBd6q6et9p1ungJlfgOnfCYy/h6hZOg6zLRuuWncbGq7wmOsz2b7e6NTM9NNgTZzzWNczx2vj+tPY+xceOGFLVN35nHW6zYTHuOU9xTo9t5777Ubfg2dQp9uxOOax6X8GGtXyn56eftmGddsauNlavUu45iraZ2ExxF6y0Y3AqJFLKXAGHdbTYWlO5h2H8mwlcLnmVGM5c7zuq2Ex40C89DdVuPuyEPr052tzANn3G10O8PjVq5x7buLdH5Tq3nvtpquHY2bbsX7+55Zm9/saqPXbTY8pvETj2NJj1Tp9p+7rW5l692e99hPb497ra1ObbxMrd5ax+WyrLfwOEJP2OhGQLSIpRQYmkXKZ91ixbvP+Yzf5Tckiv9Os4KHH374uhvYbPbmOUPXYfY967H7CI2+ay3nDY/da+LiDsL5Tx6K8xnQdE3drPXOn4u43dc8du8WupX+7j7nsds/8zznMYXHdK1gerRH3+mt+R2n+143dM1jGqf5bGb3kTJpeVt9zmMsO25aFv0aIbh7TaTnPJb/+LOfLm+8Si1MbbxMrd5VGqvbUYvwOIK6jW4ERIsgQKBXYBGfL4toQ/cS2E4BY3w79etre2rjZWr11jcil2uNhccR+mPoZhNp0fmzy0Zobm0R+dH37rPlhtpJp8fFzSXiOp2YMYqj4Zu9+2W6K2T3MR/dR2OkI/hj1r1sy8r7N2YmYmbtnnvu6X2O3bKtu/VZfoFF7NQX0cbyS1vDVRYwxle5d8evbWrjZWr1jj9iprVE4XGE/t6u8Jiv+ry3eu+7jX5+J8znPe95c4nEct75znc2cT1Werh6vHHo93MttNIXDYXHKCeuc/NDYFcEFrFTX0Qbu2LgvQR2VcAY31XBab1/auNlavVOazSPX63wOILpZsNjmrWLptMNIOIxA/nv0zVP6ZbxcZfK66+/vp3RStcOpcD4tre9rXnd617XXkeT3hf/jmtr0k+6pqY78xivib/ddNNN7TVqr3zlK5svfelLTVw/FOuUPzMvf6xCWs5uu+3WHHXUUWt3zoyZt6c+9anNF77whbVQmV/7lK4vOuCAA9buOhk3pIif7nMB+9Y/XpeWF8uKsBvrkB4Cn1+T1HUKw0svvbStM/528cUXt2ZDz7DLrzuLelMbf/u3f7t2Pd+DDz645hzLOfDAA5tnPetZTfw+fnbljqIjDE2LWAGBRezUF9HGCnSFEioWMMYr7rxtWPWpjZep1bsNQ2qlmhQeR+jOzYTH/Llwhx122FqAiueY5aeORkCKn1NOOaV9zQMPPNCGvPyOgfH3dLv6/LTV7l0F8zs3xt0I4yYUQ6etxq3m+9ajO4OWwmMEsriFfgSrmMFMp8LGf8eMZISzCGmx7nEKa7qBSfwu6oqfCKqxXnEDkli3+Em3vo9wmK//3Xffvfa3dFv8gw8+uG2/+7o4JTdC4tOe9rT29NxTTz21nQmMdYhnt3Xb6t5mP38WX7qLY9SR91tq99577113E5gRhpVFEGgFFrFTX0QbupPAdgoY49upX1/bUxsvU6u3vhG5XGssPI7QH93w2L2TXjSRZreGHiD+nve8p3nzm9/cPsMsP3W0e5v8WFa6O2X+oOyNrnnM25wVHqPtdN1ehKTTTz+9fTh393TWtMx4bYS2FBQjlJ1wwglrobZ7zWM6xTOFx3iGXQS6jU6dzde/+3y4oeV1nbphNIW9vN2YLcyDbveOjvnf8lNVS13TOsLQtIgVEFjETn0RbaxAVyihYgFjvOLO24ZVn9p4mVq92zCkVqpJ4XGE7tzMzGM+O5ZOC81nD9MjD9LprLF6MUOXP1R9nvDYvaV8Wt484THCWgqB6aHe+SmrsU756a8xaxoB89prr2323XffJg+16bTbOC02/USQTuEx1dUNj0PrH48QiJ90Cmk3PObtpNDeDbN52OuGx/xU2Xh/Os02gmV6bEBYCI8jbDgWMZfAInbqi2hjrmK9iEAhAWO8EOyKLnZq42Vq9a7osF1YWcLjCNSbCY9DM4/ptM60OkMzavlM5NDMY/dU0c3OPKbTTyM4xfWLfTd96c4Gxqmrd955ZztzGj8pEN9www3NbbfdtnYNZbeuvvDYnQHczMxjHrKTZfdmQhuFxzwg5kOj7yHuafbSzOMIG5FFDAosYqe+iDZ0MYHtFDDGt1O/vranNl6mVm99I3K51lh4HKE/NhMeh6557Jsdi1VL1zzGv+PawPyavzyk5aet5uExzfyl988z8xivza8L7LsDazeQxoxdmt2MdewLj+lB33GN4kYzj3l47K7/vNc85g8Vz0N2nEY7FB671zzG62688cb2es0wNfM4wsZiEZsWiM8XPwQIECCwWIEdO3YstsFtbE143Eb8CpsWHkfotM2Ex2hu6G6r+V1Ju6et7rXXXk26K2m6c2o+oxbLTadcRsg877zz1u6geuaZZ7ZtpusSuzfMSTeAueuuu9qAFGGx75EeOVX+9zyoxSxl33qlO8GedNJJzWc/+9l1N+yJO5Lmp4+mO7GmO8Dm65/CX9xcJ+6G+vznP795/PHHe++2mq4znXfmMepO4T7uaptOWe3zyAPo0DMvRxhaFkHADXOMAQIjCPhyPALihBYxtfEytXonNJSLlCo8jsBacqNLp6n2nY45wqoPLiJdV7nMzynsu5lQSRPLJrAdAiU/X1I9i2hjO+y0ScAYNwa2IjC1z8Sp1buVMeE9/09AeBxhNJTc6BYdHlN7wZKe9TgC0WiLyGdtY6H5MxpHa8SCCCyRQMnPF1+sl6ijrUpRgUVsR0ULsPCFCkxtvEyt3oUOphVsTHgcoVNtdCMgWgQBAr0Ci/h8WUQbupfAdgoY49upX1/bUxsvU6u3vhG5XGssPI7QHza6ERAtggAB4dEYIFBIwH66EOyKLnZq42Vq9a7osF1YWcLjCNQ2uhEQLYIAAeHRGCBQSMB+uhDsii52auNlavWu6LBdWFnC4wjUNroREC2CAAHh0RggUEjAfroQ7IoudmrjZWr1ruiwXVhZwuMI1Da6ERAtggCBbQ+P8ciceORPPFon/0k3pkp/P+ecc5p4xE76yR9dkz/uJv09HqsTjxiKR+3E388444z2cT3dZ8j23eU5f4RRLC89qihfv7iRVjy+Jz1qqG8d0usvueSSpvvs1/hbullYPCIofvJ1jv+O9bjqqqvW2ojf5Y8Y6nseriG9PAL208vTFzWsydTGy9TqrWEMLvM6Co8j9I6NbgREiyBAYGnCYx4O8zs+R6CKcDkrPHbDYYTC+Lniiis2FR4jsN14441rwbMvvMb6nX766e3yDzzwwKb7eKFYxm233bbu7tHdZ7+m5R577LFr7+8G0hRi8zs8C4/1bLT20/X01TKs6dTGy9TqXYYxVvM6CI8j9J6NbgREiyBAYCnDY6xUmhE8/vjjtxQeI4jFrGA8/ufuu++ea+ZxaJYzX9Yee+zRhtH3vve9TTwLNwLe1Vdf3c5wpp95wmM+c5p3Qv77tJwHHnhgLTwLj/VstPbT9fTVMqzp1MbL1OpdhjFW8zoIjyP0no1uBESLIEBgKcNjHuJ2ZeZx3333bWf15j1tNULixRdfvDbrODQ8ItTFTyw7Qu7hhx++0ym1G8087r777s2JJ57Yhs/8VNxYZr4ON9xwQ3Pvvfe2y09B+NFHH21OPvnk5sILL9zpFFzDebkE7KeXqz+WfW2mNl6mVu+yj79lXz/hcYQestGNgGgRBAgsTXjsXvMY1wlGONvqNY9HHnnk2mmjmwmPKaTFDGPfTzpl9bTTTmvDW4S9m2++uT09dt6Zx43CY356awqPEWgjbB5yyCFNzMQKj3VsuPbTdfTTsqzl1MbL1OpdlnFW63oIjyP0nI1uBESLIEBgacJj95rGtGLzhsfuNY/5DN79998/12mr88w8zro5T6z3rNNWNxse03WbF1xwQXPRRRc1559/vpnHCrZd++kKOmmJVnFq42Vq9S7RUKtyVYTHEbrNRjcCokUQILD04TG/eU5+iuesG+Lk1wZGkfPcbXUoqKZrHC+//PL22sP4yWcau3dsnRUe4/rIea95jNNWU1vRzkMPPdQ89thjwmMF2679dAWdtESrOLXxMrV6l2ioVbkqwuMI3WajGwHRIggQWPrwGCuYQlPc/CbdsCauF4xTWyNQ9p2WupWZxzRr2He31bgr6kY378mvcZwnPM57t9U8PKb3PPzww+se32EYL6eA/fRy9suyrtXUxsvU6l3WcVfLegmPI/SUjW4ERIsgQKCK8JgC5JVXXrm2vvmzF/tOJd1vv/02fAZj+vu1117bpBvrpIV3n/OYrr8cOq01tZ/C7DzhMdqa5zmPeXiM93Qf52EIL6+A/fTy9s0yrtnUxsvU6l3GMVfTOgmPI/SWjW4ERIsgQGDbw6MuILCqAvbTq9qzZeqa2niZWr1lRs10lio8jtDXNroREC2CAAHh0RggUEjAfroQ7IoudmrjZWr1ruiwXVhZwuMI1Da6ERAtggAB4dEYIFBIwH66EOyKLnZq42Vq9a7osF1YWcLjCNQ2uhEQLYIAAeHRGCBQSMB+uhDsii52auNlavWu6LBdWFnC4wjUNroREC2CAAHh0RggUEjAfroQ7IoudmrjZWr1ruiwXVhZwuMI1Da6ERAtggAB4dEYIFBIwH66EOyKLnZq42Vq9a7osF1YWcLjCNQ2uhEQLYIAAeHRGCBQSMB+uhDsii52auNlavWu6LBdWFnC4wjUNroREC2CAAHh0RggUEjAfroQ7IoudmrjZWr1ruiwXVhZa+FxYS1qiAABAgQIECBAgAABAgSqFHhC0zQ7duzYUeXKW2kCBAgQIECAAAECBAgQKC/gtNXyxlogQIAAAQIECBAgQIBA9QLCY/VdqAACBAgQIECAAAECBAiUFxAeyxtrgQABAgQIECBAgAABAtULCI/Vd6ECCBAgQIAAAQIECBAgUF5AeCxvrAUCBAgQIECAAAECBAhULyA8Vt+FCiBAgAABAgQIECBAgEB5AeGxvLEWCBAgQIAAAQIECBAgUL2A8Fh9FyqAAAECBAgQIECAAAEC5QWEx/LGWiBAgAABAgQIECBAgED1AsJj9V2oAAIECBAgQIAAAQIECJQXEB7LG2uBAAECBAgQIECAAAEC1QsIj9V3oQIIECBAgAABAgQIECBQXkB4LG+sBQIECBAgQIAAAQIECFQvIDxW34UKIECAAAECBAgQIECAQHkB4bG8sRYIECBAgAABAgQIECBQvYDwWH0XKoAAAQIECBAgQIAAAQLlBYTH8sZaIECAAAECBAgQIECAQPUCwmP1XagAAgQIECBAgAABAgQIlBcQHssba4EAAQIECBAgQIAAAQLVCwiP1XehAggQIECAAAECBAgQIFBeQHgsb6wFAgQIECBAgAABAgQIVC8gPFbfhQogQIAAAQIECBAgQIBAeQHhsbyxFggQIECAAAECBAgQIFC9gPBYfRcqgAABAgQIECBAgAABAuUFhMfyxlogQIAAAQIECBAgQIBA9QLCY/VdqAACBAgQIECAAAECBAiUFxAeyxtrgQABAgQIECBAgAABAtULCI/Vd6ECCBAgQIAAAQIECBAgUF5AeCxvrAUCBAgQIECAAAECBAhULyA8Vt+FCiBAgAABAgQIECBAgEB5AeGxvLEWCBAgQIAAAQIECBAgUL2A8Fh9FyqAAAECBAgQIECAAAEC5QWEx/LGWiBAgAABAgQIECBAgED1AsJj9V2oAAIECBAgQIAAAQIECJQXEB7LG2uBAAECBAgQIECAAAEC1QsIj9V3oQIIECBAgAABAgQIECBQXkB4LG+sBQIECBAgQIAAAQIECFQvIDxW34UKIECAAAECBAgQIECAQHkB4bG8sRYIECBAgAABAgQIECBQvYDwWH0XKoAAAQIECBAgQIAAAQLlBYTH8sZaIECAAAECBAgQIECAQPUCwmP1XagAAgQIECBAgAABAgQIlBcQHssba4EAAQIECBAgQIAAAQLVCwiP1XehAggQIECAAAECBAgQIFBeQHgsb6wFAgQIECBAgAABAgQIVC8gPFbfhQogQIAAAQIECBAgQIBAeQHhsbyxFggQIECAAAECBAgQIFC9gPBYfRcqgAABAgQIECBAgAABAuUFhMfyxlogQIAAAQIECBAgQIBA9QLCY/VdqAACBAgQIECAAAECBAiUFxAeyxtrgQABAgQIECBAgAABAtULCI/Vd6ECCBAgQIAAAQIECBAgUF5AeCxvrAUCBAgQIECAAAECBAhULyA8Vt+FCiBAgAABAgQIECBAgEB5AeGxvLEWCBAgQIAAAQIECBAgUL2A8Fh9FyqAAAECBAgQIECAAAEC5QWEx/LGWiBAgAABAgQIECBAgED1AsJj9V2oAAIECBAgQIAAAQIECJQXEB7LG2uBAAECBAgQIECAAAEC1QsIj9V3oQIIECBAgAABAgQIECBQXkB4LG+sBQIECBAgQIAAAQIECFQvIDxW34UKIECAAAECBAgQIECAQHkB4bG8sRYIECBAgAABAgQIECBQvYDwWH0XKoAAAQIECBAgQIAAAQLlBYTH8sZaIECAAAECBAgQIECAQPUCwmP1XagAAgQIECBAgAABAgQIlBcQHssba4EAAQIECBAgQIAAAQLVCwiP1XehAggQIECAAAECBAgQIFBeQHgsb6wFAgQIECBAgAABAgQIVC8gPFbfhQogQIAAAQIECBAgQIBAeQHhsbyxFggQIECAAAECBAgQIFC9gPBYfRcqgAABAgQIECBAgAABAuUFhMfyxlogQIAAAQIECBAgQIBA9QLCY/VdqAACBAgQIECAAAECBAiUFxAeyxtrgQABAgQIECBAgAABAtULCI/Vd6ECCBAgQIAAAQIECBAgUF5AeCxvrAUCBAgQIECAAAECBAhULyA8Vt+FCiBAgAABAgQIECBAgEB5AeGxvLEWCBAgQIAAAQIECBAgUL2A8Fh9FyqAAAECBAgQIECAAAEC5QWEx/LGWiBAgAABAgQIECBAgED1AsJj9V2oAAIECBAgQIAAAQIECJQXEB7LG2uBAAECBAgQIECAAAEC1QsIj9V3oQIIECBAgAABAgQIECBQXkB4LG+sBQIECBAgQIAAAQIECFQvIDxW34UKIECAAAECBAgQIECAQHkB4bG8sRYIECBAgAABAgQIECBQvYDwWH0XKoAAAQIECBAgQIAAAQLlBYTH8sZaIECAAAECBAgQIECAQPUCwmP1XagAAgQIECBAgAABAgQIlBcQHssba4EAAQIECBAgQIAAAQLVCwiP1XehAggQIECAAAECBAgQIFBeQHgsb6wFAgQIECBAgAABAgQIVC8gPFbfhQogQIAAAQIECBAgQIBAeQHhsbyxFggQIECAAAECBAgQIFC9gPBYfRcqgAABAgQIECBAgAABAuUFhMfyxlogQIAAAQIECBAgQIBA9QLCY/VdqAACBAgQIECAAAECBAiUFxAeyxtrgQABAgQIECBAgAABAtULCI/Vd6ECCBAgQIAAAQIECBAgUF5AeCxvrAUCBAgQIECAAAECBAhULyA8Vt+FCiBAgAABAgQIECBAgEB5AeGxvLEWCBAgQIAAAQIECBAgUL2A8Fh9FyqAAAECBAgQIECAAAEC5QWEx/LGWiBAgAABAgQIECBAgED1AsJj9V2oAAIECBAgQIAAAQIECJQXEB7LG2uBAAECBAgQIECAAAEC1QsIj9V3oQIIECBAgAABAgQIECBQXkB4LG+sBQIECBAgQIAAAQIECFQvIDxW34UKIECAAAECBAgQIECAQHkB4bG8sRYIECBAgAABAgQIECBQvYDwWH0XKoAAAQIECBAgQIAAAQLlBYTH8sZaIECAAAECBAgQIECAQPUCwmP1XagAAgQIECBAgAABAgQIlBcQHssba4EAAQIECBAgQIAAAQLVCwiP1XehAggQIECAAAECBAgQIFBeQHgsb6wFAgQIECBAgAABAgQIVC8gPFbfhQogQIAAAQIECBAgQIBAeQHhsbyxFggQIECAAAECBAgQIFC9gPBYfRcqgAABAgQIECBAgAABAuUFhMfyxlogQIAAAQIECBAgQIBA9QLCY/VdqAACBAgQIECAAAECBAiUFxAeyxtrgQABAgQIECBAgAABAtULCI/Vd2PkvBMAACAASURBVKECCBAgQIAAAQIECBAgUF5AeCxvrAUCBAgQIECAAAECBAhULyA8Vt+FCiBAgAABAgQIECBAgEB5AeGxvLEWCBAgQIAAAQIECBAgUL2A8Fh9FyqAAAECBAgQIECAAAEC5QWEx/LGWiBAgAABAgQIECBAgED1AsJj9V2oAAIECBAgQIAAAQIECJQXEB7LG2uBAAECBAgQIECAAAEC1QsIj9V3oQIIECBAgAABAgQIECBQXkB4LG+sBQIECBAgQIAAAQIECFQvIDxW34UKIECAAAECBAgQIECAQHkB4bG8sRYIECBAgAABAgQIECBQvYDwWH0XKoAAAQIECBAgQIAAAQLlBYTH8sZaIECAAAECBAgQIECAQPUCwmP1XagAAgQIECBAgAABAgQIlBcQHssba4EAAQIECBAgQIAAAQLVCwiP1XehAggQIECAAAECBAgQIFBeQHgsb6wFAgQIECBAgAABAgQIVC8gPFbfhQogQIAAAQIECBAgQIBAeQHhsbyxFggQIECAAAECBAgQIFC9gPBYfRcqgAABAgQIECBAgAABAuUFhMfyxlogQIAAAQIECBAgQIBA9QLCY/VdqAACBAgQIECAAAECBAiUFxAeyxtrgQABAgQIECBAgAABAtULCI/Vd6ECCBAgQIAAAQIECBAgUF5AeCxvrAUCBAgQIECAAAECBAhULyA8Vt+FCiBAgAABAgQIECBAgEB5AeGxvLEWCBAgQIAAAQIECBAgUL2A8Fh9FyqAAAECBAgQIECAAAEC5QWEx/LGWiBAgAABAgQIECBAgED1AsJj9V2oAAIECBAgQIAAAQIECJQXEB7LG2uBAAECBAgQIECAAAEC1QsIj9V3oQIIECBAgAABAgQIECBQXkB4LG+sBQIECBAgQIAAAQIECFQvIDxW34UKIECAAAECBAgQIECAQHkB4bG8sRYIECBAgAABAgQIECBQvYDwWH0XKoAAAQIECBAgQIAAAQLlBYTH8sZaIECAAAECBAgQIECAQPUCwmP1XagAAgQIECBAgAABAgQIlBcQHssba4EAAQIECBAgQIAAAQLVCwiP1XehAggQIECAAAECBAgQIFBeQHgsb6wFAgQIECBAgAABAgQIVC8gPFbfhQogQIAAAQIECBAgQIBAeQHhsbyxFggQIECAAAECBAgQIFC9gPBYfRcqgAABAgQIECBAgAABAuUFhMfyxlogQIAAAQIECBAgQIBA9QLCY/VdqAACBAgQIECAAAECBAiUFxAeyxtrgQABAgQIECBAgAABAtULCI/Vd6ECCBAgQIAAAQIECBAgUF5AeCxvrAUCBAgQIECAAAECBAhULyA8Vt+FCiBAgAABAgQIECBAgEB5AeGxvLEWCBAgQIAAAQIECBAgUL2A8Fh9FyqAAAECBAgQIECAAAEC5QWEx/LGWiBAgAABAgQIECBAgED1AsJj9V2oAAIECBAgQIAAAQIECJQXEB7LG2uBAAECBAgQIECAAAEC1QsIj9V3oQIIECBAgAABAgQIECBQXkB4LG+sBQIECBAgQIAAAQIECFQvIDxW34UKIECAAAECBAgQIECAQHkB4bG8sRYIECBAgAABAgQIECBQvYDwWH0XKoAAAQIECBAgQIAAAQLlBYTH8sZaIECAAAECBAgQIECAQPUCwmP1XagAAgQIECBAgAABAgQIlBcQHssba4EAAQIECBAgQIAAAQLVCwiP1XehAggQIECAAAECBAgQIFBeQHgsb6wFAgQIECBAgAABAgQIVC8gPFbfhQogQIAAAQIECBAgQIBAeQHhsbyxFggQIECAAAECBAgQIFC9gPBYfRcqgAABAgQIECBAgAABAuUFhMfyxlogQIAAAQIECBAgQIBA9QLCY/VdqAACBAgQIECAAAECBAiUFxAeyxtrgQABAgQIECBAgAABAtULCI/Vd6ECCBAgQIAAAQIECBAgUF5AeCxvrAUCBAgQIECAAAECBAhULyA8Vt+FCiBAgAABAgQIECBAgEB5AeGxvLEWCBAgQIAAAQIECBAgUL2A8Fh9FyqAAAECBAgQIECAAAEC5QWEx/LGWiBAgAABAgQIECBAgED1AsJj9V2oAAIECBAgQIAAAQIECJQXEB7LG2uBAAECBAgQIECAAAEC1QsIj9V3oQIIECBAgAABAgQIECBQXkB4LG+sBQIECBAgQIAAAQIECFQvIDxW34UKIECAAAECBAgQIECAQHkB4bG8sRYIECBAgAABAgQIECBQvYDwWH0XKoAAAQIECBAgQIAAAQLlBYTH8sZaIECAAAECBAgQIECAQPUCwmP1XagAAgQIECBAgAABAgQIlBcQHssba4EAAQIECBAgQIAAAQLVCwiP1XehAggQIECAAAECBAgQIFBeQHgsb6wFAgQIECBAgAABAgQIVC8gPFbfhQogQIAAAQIECBAgQIBAeQHhsbyxFggQIECAAAECBAgQIFC9gPBYfRcqgAABAgQIECBAgAABAuUFhMfyxlogQIAAAQIECBAgQIBA9QLCY/VdqAACBAgQIECAAAECBAiUFxAeyxtrgQABAgQIECBAgAABAtULCI/Vd6ECCBAgQIAAAQIECBAgUF5AeCxvrAUCBAgQIECAAAECBAhULyA8Vt+FCiBAgAABAgQIECBAgEB5AeGxvLEWCBAgQIAAAQIECBAgUL2A8Fh9FyqAAAECBAgQIECAAAEC5QWEx/LGWiBAgAABAgQIECBAgED1AsJj9V2oAAIECBAgQIAAAQIECJQXEB7LG2uBAAECBAgQIECAAAEC1QsIj9V3oQIIECBAgAABAgQIECBQXkB4LG+sBQIECBAgQIAAAQIECFQvIDxW34UKIECAAAECBAgQIECAQHkB4bG8sRYIECBAgAABAgQIECBQvYDwWH0XKoAAAQIECBAgQIAAAQLlBYTH8sZaIECAAAECBAgQIECAQPUCwmP1XagAAgQIECBAgAABAgQIlBcQHssba4EAAQIECBAgQIAAAQLVCwiP1XehAggQIECAAAECBAgQIFBeQHgsb6wFAgQIECBAgAABAgQIVC8gPFbfhQogQIAAAQIECBAgQIBAeQHhsbyxFggQIECAAAECBAgQIFC9gPBYfRcqgAABAgQIECBAgAABAuUFhMfyxlogQIAAAQIECBAgQIBA9QLCY/VdqAACBAgQIECAAAECBAiUFxAeyxtrgQABAgQIECBAgAABAtULCI/Vd6ECCBAgQIAAAQIECBAgUF5AeCxvrAUCBAgQIECAAAECBAhULyA8Vt+FCiBAgAABAgQIECBAgEB5AeGxvLEWCBAgQIAAAQIECBAgUL2A8Fh9FyqAAAECBAgQIECAAAEC5QWEx/LGWiBAgAABAgQIECBAgED1AsJj9V2oAAIECBAgQIAAAQIECJQXEB7LG2uBAAECBAgQIECAAAEC1QsIj9V3oQIIECBAgAABAgQIECBQXkB4LG+sBQIECBAgQIAAAQIECFQvIDxW34UKIECAAAECBAgQIECAQHkB4bG8sRYIECBAgAABAgQIECBQvYDwWH0XKoAAAQIECBAgQIAAAQLlBYTH8sZaIECAAAECBAgQIECAQPUCwmP1XagAAgQIECBAgAABAgQIlBcQHssba4EAAQIECBAgQIAAAQLVCwiP1XehAggQIECAAAECBAgQIFBeQHgsb6wFAgQIECBAgAABAgQIVC8gPFbfhQogQIAAAQIECBAgQIBAeQHhsbyxFggQIECAAAECBAgQIFC9gPBYfRcqgAABAgQIECBAgAABAuUFhMfyxlogQIAAAQIECBAgQIBA9QLCY/VdqAACBAgQIECAAAECBAiUFxAeyxtrgQABAgQIECBAgAABAtULCI/Vd6ECCBAgQIAAAQIECBAgUF5AeCxvrAUCBAgQIECAAAECBAhULyA8Vt+FCiBAgAABAgQIECBAgEB5AeGxvLEWCBAgQIAAAQIECBAgUL2A8Fh9FyqAAAECBAgQIECAAAEC5QWEx/LGWiBAgAABAgQIECBAgED1AsJj9V2oAAIECBAgQIAAAQIECJQXEB7LG2uBAAECBAgQIECAAAEC1QsIj9V3oQIIECBAgAABAgQIECBQXkB4LG+sBQIECBAgQIAAAQIECFQvIDxW34UKIECAAAECBAgQIECAQHkB4bG8sRYIECBAgAABAgQIECBQvYDwWH0XKoAAAQIECBAgQIAAAQLlBYTH8sZaIECAAAECBAgQIECAQPUCwmP1XagAAgQIECBAgAABAgQIlBcQHssba4EAAQIECBAgQIAAAQLVCwiP1XehAggQIECAAAECBAgQIFBeQHgsb6wFAgQIECBAgAABAgQIVC8gPFbfhQogQIAAAQIECBAgQIBAeQHhsbyxFggQIECAAAECBAgQIFC9gPBYfRcqgAABAgQIECBAgAABAuUFhMfyxlogQIAAAQIECBAgQIBA9QLCY/VdqAACBAgQIECAAAECBAiUFxAeyxtrgQABAgQIECBAgAABAtULCI/Vd6ECCBAgQIAAAQIECBAgUF5AeCxvrAUCBAgQIECAAAECBAhULyA8Vt+FCiBAgAABAgQIECBAgEB5AeGxvLEWCBAgQIAAAQIECBAgUL2A8Fh9FyqAAAECBAgQIECAAAEC5QWEx/LGWiBAgAABAgQIECBAgED1AsJj9V2oAAIECBAgQIAAAQIECJQXEB7LG2uBAAECBAgQIECAAAEC1QsIj9V3oQIIECBAgAABAgQIECBQXkB4LG+sBQIECBAgQIAAAQIECFQvIDxW34UKIECAAAECBAgQIECAQHkB4bG8sRYIECBAgAABAgQIECBQvYDwWH0XKoAAAQIECBAgQIAAAQLlBYTH8sZaIECAAAECBAgQIECAQPUCwmP1XagAAgQIECBAgAABAgQIlBcQHssba4EAAQIECBAgQIAAAQLVCwiP1XehAggQIECAAAECBAgQIFBeQHgsb6wFAgQIECBAgAABAgQIVC8gPFbfhQogQIAAAQIECBAgQIBAeQHhsbyxFggQIECAAAECBAgQIFC9gPBYfRcqgAABAgQIECBAgAABAuUFhMfyxlogQIAAAQIECBAgQIBA9QLCY/VdqAACBAgQIECAAAECBAiUFxAeyxtrgQABAgQIECBAgAABAtULCI/Vd6ECCBAgQIAAAQIECBAgUF5AeCxvrAUCBAgQIECAAAECBAhULyA8Vt+FCiBAgAABAgQIECBAgEB5AeGxvLEWCBAgQIAAAQIECBAgUL2A8Fh9FyqAAAECBAgQIECAAAEC5QWEx/LGWiBAgAABAgQIECBAgED1AsJj9V2oAAIECBAgQIAAAQIECJQXEB7LG2uBAAECBAgQIECAAAEC1QsIj9V3oQIIECBAgAABAgQIECBQXkB4LG+sBQIECBAgQIAAAQIECFQvIDxW34UKIECAAAECBAgQIECAQHkB4bG8sRYIECBAgAABAgQIECBQvYDwWH0XKoAAAQIECBAgQIAAAQLlBYTH8sZaIECAAAECBAgQIECAQPUCwmP1XagAAgQIECBAgAABAgQIlBcQHssba4EAAQIECBAgQIAAAQLVCwiP1XehAggQIECAAAECBAgQIFBeQHgsb6wFAgQIECBAgAABAgQIVC8gPFbfhQogQIAAAQIECBAgQIBAeQHhsbyxFggQIECAAAECBAgQIFC9gPBYfRcqgAABAgQIECBAgAABAuUFhMfyxlogQIAAAQIECBAgQIBA9QLCY/VdqAACBAgQIECAAAECBAiUFxAeyxtrgQABAgQIECBAgAABAtULCI/Vd6ECCBAgQIAAAQIECBAgUF5AeCxvrAUCBAgQIECAAAECBAhULyA8Vt+FCiBAgAABAgQIECBAgEB5AeGxvLEWCBAgQIAAAQIECBAgUL2A8Fh9FyqAAAECBAgQIECAAAEC5QWEx/LGWiBAgAABAgQIECBAgED1AsJj9V2oAAIECBAgQIAAAQIECJQXEB7LG2uBAAECBAgQIECAAAEC1QsIj9V3oQIIECBAgAABAgQIECBQXkB4LG+sBQIECBAgQIAAAQIECFQvIDxW34UKIECAAAECBAgQIECAQHkB4bG8sRYIECBAgAABAgQIECBQvYDwWH0XKoAAAQIECBAgQIAAAQLlBYTH8sZaIECAAAECBAgQIECAQPUCwmP1XagAAgQIECBAgAABAgQIlBcQHssba4EAAQIECBAgQIAAAQLVCwiP1XehAggQIECAAAECBAgQIFBeQHgsb6wFAgQIECBAgAABAgQIVC8gPFbfhQogQIAAAQIECBAgQIBAeQHhsbyxFggQIECAAAECBAgQIFC9gPBYfRcqgAABAgQIECBAgAABAuUFhMfyxlogQIAAAQIECBAgQIBA9QLCY/VdqAACBAgQIECAAAECBAiUFxAeyxtrgQABAgQIECBAgAABAtULCI/Vd6ECCBAgQIAAAQIECBAgUF5AeCxvrAUCBAgQIECAAAECBAhULyA8Vt+FCiBAgAABAgQIECBAgEB5AeGxvLEWCBAgQIAAAQIECBAgUL2A8Fh9FyqAAAECBAgQIECAAAEC5QWEx/LGWiBAgAABAgQIECBAgED1AsJj9V2oAAIECBAgQIAAAQIECJQXEB7LG2uBAAECBAgQIECAAAEC1QsIj9V3oQIIECBAgAABAgQIECBQXkB4LG+sBQIECBAgQIAAAQIECFQvIDxW34UKIECAAAECBAgQIECAQHkB4bG8sRYIECBAgAABAgQIECBQvYDwWH0XKoAAAQIECBAgQIAAAQLlBYTH8sZaIECAAAECBAgQIECAQPUCwmP1XagAAgQIECBAgAABAgQIlBcQHssba4EAAQIECBAgQIAAAQLVCwiP1XehAggQIECAAAECBAgQIFBeQHgsb6wFAgQIECBAgAABAgQIVC8gPFbfhQogQIAAAQIECBAgQIBAeQHhsbyxFggQIECAAAECBAgQIFC9gPBYfRcqgAABAgQIECBAgAABAuUFhMfyxlogQIAAAQIECBAgQIBA9QLCY/VdqAACBAgQIECAAAECBAiUFxAeyxtrgQABAgQIECBAgAABAtULCI/Vd6ECCBAgQIAAAQIECBAgUF5AeCxvrAUCBAgQIECAAAECBAhULyA8Vt+FCiBAgAABAgQIECBAgEB5AeGxvLEWCBAgQIAAAQIECBAgUL2A8Fh9FyqAAAECBAgQIECAAAEC5QWEx/LGWiBAgAABAgQIECBAgED1AsJj9V2oAAIECBAgQIAAAQIECJQXEB7LG2uBAAECBAgQIECAAAEC1QsIj9V3oQIIECBAgAABAgQIECBQXkB4LG+sBQIECBAgQIAAAQIECFQvIDxW34UKIECAAAECBAgQIECAQHkB4bG8sRYIECBAgAABAgQIECBQvYDwWH0XKoAAAQIECBAgQIAAAQLlBYTH8sZaIECAAAECBAgQIECAQPUCwmP1XagAAgQIECBAgAABAgQIlBcQHssba4EAAQIECBAgQIAAAQLVCwiP1XehAggQIECAAAECBAgQIFBeQHgsb6wFAgQIECBAgAABAgQIVC8gPFbfhQogQIAAAQIECBAgQIBAeQHhsbyxFggQIECAAAECBAgQIFC9gPBYfRcqgAABAgQIECBAgAABAuUFhMfyxlogQIAAAQIECBAgQIBA9QLCY/VdqAACBAgQIECAAAECBAiUFxAeyxtrgQABAgQIECBAgAABAtULCI/Vd6ECCBAgQIAAAQIECBAgUF5AeCxvrAUCBAgQIECAAAECBAhULyA8Vt+FCiBAgAABAgQIECBAgEB5AeGxvLEWCBAgQIAAAQIECBAgUL2A8Fh9FyqAAAECBAgQIECAAAEC5QWEx/LGWiBAgAABAgQIECBAgED1AsJj9V2oAAIECBAgQIAAAQIECJQXEB7LG2uBAAECBAgQIECAAAEC1QsIj9V3oQIIECBAgAABAgQIECBQXkB4LG+sBQIECBAgQIAAAQIECFQvIDxW34UKIECAAAECBAgQIECAQHkB4bG8sRYIECBAgAABAgQIECBQvYDwWH0XKoAAAQIECBAgQIAAAQLlBYTH8sZaIECAAAECBAgQIECAQPUCwmP1XagAAgQIECBAgAABAgQIlBcQHssba4EAAQIECBAgQIAAAQLVCwiP1XehAggQIECAAAECBAgQIFBeQHgsb6wFAgQIECBAgAABAgQIVC8gPFbfhQogQIAAAQIECBAgQIBAeQHhsbyxFggQIECAAAECBAgQIFC9gPBYfRcqgAABAgQIECBAgAABAuUFhMfyxlogQIAAAQIECBAgQIBA9QLCY/VdqAACBAgQIECAAAECBAiUFxAeyxtrgQABAgQIECBAgAABAtULCI/Vd6ECCBAgQIAAAQIECBAgUF5AeCxvrAUCBAgQIECAAAECBAhULyA8Vt+FCiBAgAABAgQIECBAgEB5AeGxvLEWCBAgQIAAAQIECBAgUL2A8Fh9FyqAAAECBAgQIECAAAEC5QWEx/LGWiBAgAABAgQIECBAgED1AsJj9V2oAAIECBAgQIAAAQIECJQXEB7LG2uBAAECBAgQIECAAAEC1QsIj9V3oQIIECBAgAABAgQIECBQXkB4LG+sBQIECBAgQIAAAQIECFQvIDxW34UKIECAAAECBAgQIECAQHkB4bG8sRYIECBAgAABAgQIECBQvYDwWH0XKoAAAQIECBAgQIAAAQLlBYTH8sZaIECAAAECBAgQIECAQPUCwmP1XagAAgQIECBAgAABAgQIlBcQHssba4EAAQIECBAgQIAAAQLVCwiP1XehAggQIECAAAECBAgQIFBeQHgsb6wFAgQIECBAgAABAgQIVC8gPFbfhQogQIAAAQIECBAgQIBAeQHhsbyxFggQIECAAAECBAgQIFC9gPBYfRcqgAABAgQIECBAgAABAuUFhMfyxlogQIAAAQIECBAgQIBA9QLCY/VdqAACBAgQIECAAAECBAiUFxAeyxtrgQABAgQIECBAgAABAtULCI/Vd6ECCBAgQIAAAQIECBAgUF5AeCxvrAUCBAgQIECAAAECBAhULyA8Vt+FCiBAgAABAgQIECBAgEB5AeGxvLEWCBAgQIAAAQIECBAgUL2A8Fh9FyqAAAECBAgQIECAAAEC5QWEx/LGWiBAgAABAgQIECBAgED1AsJj9V2oAAIECBAgQIAAAQIECJQXEB7LG2uBAAECBAgQIECAAAEC1QsIj9V3oQIIECBAgAABAgQIECBQXkB4LG+sBQIECBAgQIAAAQIECFQvIDxW34UKIECAAAECBAgQIECAQHkB4bG8sRYIECBAgAABAgQIECBQvYDwWH0XKoAAAQIECBAgQIAAAQLlBYTH8sZaIECAAAECBAgQIECAQPUCwmP1XagAAgQIECBAgAABAgQIlBcQHssba4EAAQIECBAgQIAAAQLVCwiP1XehAggQIECAAAECBAgQIFBeQHgsb6wFAgQIECBAgAABAgQIVC8gPFbfhQogQIAAAQIECBAgQIBAeQHhsbyxFggQIECAAAECBAgQIFC9gPBYfRcqgAABAgQIECBAgAABAuUFhMfyxlogQIAAAQIECBAgQIBA9QLCY/VdqAACBAgQIECAAAECBAiUFxAeyxtrgQABAgQIECBAgAABAtULCI/Vd6ECCBAgQIAAAQIECBAgUF5AeCxvrAUCBAgQIECAAAECBAhULyA8Vt+FCiBAgAABAgQIECBAgEB5AeGxvLEWCBAgQIAAAQIECBAgUL2A8Fh9FyqAAAECBAgQIECAAAEC5QWEx/LGWiBAgAABAgQIECBAgED1AsJj9V2oAAIECBAgQIAAAQIECJQXEB7LG2uBAAECBAgQIECAAAEC1QsIj9V3oQIIECBAgAABAgQIECBQXkB4LG+sBQIECBAgQIAAAQIECFQvIDxW34UKIECAAAECBAgQIECAQHkB4bG8sRYIECBAgAABAgQIECBQvYDwWH0XKoAAAQIECBAgQIAAAQLlBYTH8sZaIECAAAECBAgQIECAQPUCwmP1XagAAgQIECBAgAABAgQIlBcQHssba4EAAQIECBAgQIAAAQLVCwiP1XehAggQIECAAAECBAgQIFBeQHgsb6wFAgQIECBAgAABAgQIVC8gPFbfhQogQIAAAQIECBAgQIBAeQHhsbyxFggQIECAAAECBAgQIFC9gPBYfRcqgAABAgQIECBAgAABAuUFhMfyxlogQIAAAQIECBAgQIBA9QLCY/VdqAACBAgQIECAAAECBAiUFxAeyxtrgQABAgQIECBAgAABAtULCI/Vd6ECCBAgQIAAAQIECBAgUF5AeCxvrAUCBAgQIECAAAECBAhULyA8Vt+FCiBAgAABAgQIECBAgEB5AeGxvLEWCBAgQIAAAQIECBAgUL2A8Fh9FyqAAAECBAgQIECAAAEC5QWEx/LGWiBAgAABAgQIECBAgED1AsJj9V2oAAIECBAgQIAAAQIECJQXEB7LG2uBAAECBAgQIECAAAEC1QsIj9V3oQIIECBAgAABAgQIECBQXkB4LG+sBQIECBAgQIAAAQIECFQvIDxW34UKIECAAAECBAgQIECAQHkB4bG8sRYIECBAgAABAgQIECBQvYDwWH0XKoAAAQIECBAgQIAAAQLlBYTH8sZaIECAAAECBAgQIECAQPUCwmP1XagAAgQIECBAgAABAgQIlBcQHssba4EAAQIECBAgQIAAAQLVCwiP1XehAggQIECAAAECBAgQIFBeQHgsb6wFAgQIECBAgAABAgQIVC8gPFbfhQogQIAAAQIECBAgQIBAeQHhsbyxFggQIECAAAECBAgQIFC9gPBYfRcqgAABAgQIECBAgAABAuUFhMfyxlogQIAAAQIECBAgQIBA9QLCY/VdqAACBAgQIECAAAECBAiUFxAeyxtrzG1C/AAAIABJREFUgQABAgQIECBAgAABAtULCI/Vd6ECCBAgQIAAAQIECBAgUF5AeCxvrAUCBAgQIECAAAECBAhULyA8Vt+FCiBAgAABAgQIECBAgEB5AeGxvLEWCBAgQIAAAQIECBAgUL2A8Fh9FyqAAAECBAgQIECAAAEC5QWEx/LGWiBAgAABAgQIECBAgED1AsJj9V2oAAIECBAgQIAAAQIECJQXWAuP5ZvSAgECBAgQIECAAAECBAjULPCEpml27Nixo+YarDuBNYE4ImI8GxAECBAgQGA5Beynl7NfrBWBeQSctjqPktdUJWCnVFV3WVkCBAgQmJiA/fTEOly5KyUgPK5UdyomBOyUjAMCBAgQILC8AvbTy9s31ozALAHhcZaQv1cnYKdUXZdZYQIECBCYkID99IQ6W6krJyA8rlyXKshOyRggQIAAAQLLK2A/vbx9Y80IzBIQHmcJ+Xt1AnZK1XWZFSZAgACBCQnYT0+os5W6cgLC48p1qYLslIwBAgQIECCwvAL208vbN9aMwCwB4XGWkL9XJ2CnVF2XWWECBAgQmJCA/fSEOlupKycgPK5clyrITskYIECAAAECyytgP728fWPNCMwSmCs83nfffc0xxxzTHHzwwc0VV1yxbpnvete7mttuu6255pprmj322KP92yOPPNKceOKJzU033bT22le/+tXr3puWeccdd6xb3n777ddcd911zfOe97zBZeVv+PjHP94cffTRs+r09wkJzLNTes1rXtNceeWVvSppDD744IPNxRdf3MQYu//++5uXv/zlzT333NP7nhjf8doY9/G6vjE5NOZjgd1xP6HuUioBAgQITEygbz8d3yevuuqqdd8BgyXtO88555x23xqvu/fee3f6Ptr3uhtvvLHdh++zzz47Ccdy0t933333nb63pjfk3zM/8YlPtN+H+36OPPLI9rvwo48+2r6m+/023tP9LjyxblfuighsKjzGhtANa93wePvtt7dfng8//PB1G3Z8Wf/yl7+8thHHRn7yySc3F1544VpQDNPYMM8+++y1D48URIe+kK9IPyhjRIF5wmPeXIy5OGCRHwBJYzGFx3zHMzQmZ43VoTE/YukWRYAAAQIEll5gKDzG978UwtKExK6Ex4997GPN/vvv31x++eVrExxp/x4B77nPfW77vTSFx+53ze530qHvCzn40L4+1XHsscc2Z5111tL3kRUkMCQwd3iMoLfXXns1//Zv/7buKE4eHqORmHk55JBDejeMCJDxE7OXG32R7lvmrPDYNwOq26cpUHN4TAF0aBuaZo+qmgABAgRWSWAoPMaZbA888ECTB6xdCY+xvPjuesIJJ6ybqEjfR9OkxlB47H5X3ZXwGP3nu+oqjeLp1rKp8BhHSiL4xYaYTl/NN4S77767OeOMM5rLLrts3UaaeGNW8oILLmiuvvrq9ld9M4/x+/x1Qxv0dLtM5bMEag6Ps2rzdwIECBAgULvAUHiM01HjzLX8DLRdDY9xqutDDz20NqkRy4vvqkcccUTzV3/1VzNnHm+++ea177zCY+0jz/qPIbCp8BinmMZPzAJecskla+eep2seb7nllrVrxPrOL8+P4Dz96U8fDI/56w444IDB89DT6QZ9bY2BYxl1CixzeBy6DqJ7mk6d8taaAAECBAjMFtgoPMbkRMwMRuDLryHcyjWP8f30bW97W3vaalyGEqfCRgCMQBghNV2astE1j/n+eaNrHuN7cUyyOG11dv97Rd0Cmw6PcSOb/CLjG264Ye2GOSXD46zTVuvuBms/psAyh8eh2fYx67csAgQIECCwzAKzwmN+feDxxx/f3oBmq+ExAuhFF13ULiO+w0YwjeAYP93w2P2ume7jkSZM5p15HDpQnALmMveNdSMwS2BL4TFdlxWnr+67775r4dFpq7O4/X0RAsLjIpS1QYAAAQIEtiYwKzzGUtPNaiJwRcjblfAYkxsx23juueeuXV4VN4GcFR5jPfL7dcwbHrsHirs3jdyamncRWA6BLYXHWPV0NOZXfuVXmic/+cntqQXxs103zFkOTmuxDALC4zL0gnUgQIAAAQL9AvOExxTc/umf/qn53ve+t3a51FCAi++l+X038ntyxOMz0nWOX/va19prGGM584bHmCiJU1K3Gh7TpEvU1L2zuzFCoDaBLYfHKDQ2zO5tlT2qo7YhsHrrKzyuXp+qiAABAgRWR2De8Jg/Hzk9Km7okRf5dZJxbWP3zqbp+c5pOfOEx24g3Wp4zCdduo+yW51eVclUBHYpPA4dSUm/v+mmm9Ycuw9GHXpgevcmOH3LyjsnLdftj6cyZGfXud3hMR/3aW1jZxVje+g6iHhdnJpzyimnbDh7P7t6ryBAgAABAsstMG94jCrSTWry54zP8z2z+70wD4txo8W+8Di0/447tubr0qe73377tc+M3uiGkKkW1z4u9/i0dhsLzBUeIRKoSWCz4bGm2qwrAQIECBCoXcB+uvYetP5TFhAep9z7K1q7ndKKdqyyCBAgQGAlBOynV6IbFTFRAeFxoh2/ymXbKa1y76qNAAECBGoXsJ+uvQet/5QFhMcp9/6K1m6ntKIdqywCBAgQWAkB++mV6EZFTFRAeJxox69y2XZKq9y7aiNAgACB2gXsp2vvQes/ZQHhccq9v6K12ymtaMcqiwABAgRWQsB+eiW6URETFRAeJ9rxq1y2ndIq967aCBAgQKB2Afvp2nvQ+k9ZQHiccu+vaO12SivascoiQIAAgZUQsJ9eiW5UxEQFhMeJdvwql22ntMq9qzYCBAgQqF3Afrr2HrT+UxYQHqfc+ytau53SinassggQIEBgJQTsp1eiGxUxUQHhcaIdv8pl2ymtcu+qjQABAgRqF7Cfrr0Hrf+UBYTHKff+itZup7SiHassAgQIEFgJAfvplehGRUxUQHicaMevctl2Sqvcu2ojQIAAgdoF7Kdr70HrP2UB4XHKvb+itdsprWjHKosAAQIEVkLAfnolulERExUQHifa8atctp3SKveu2ggQIECgdgH76dp70PpPWUB4nHLvr2jtdkor2rHKIkCAAIGVELCfXoluVMREBYTHiXb8Kpdtp7TKvas2AgQIEKhdwH669h60/lMWEB6n3PsrWrud0op2rLIIECBAYCUE7KdXohsVMVEB4XGiHb/KZdsprXLvqo0AAQIEahewn669B63/lAWExyn3/orWbqe0oh2rLAIECBBYCQH76ZXoRkVMVEB4nGjHr3LZdkqr3LtqI0CAAIHaBeyna+9B6z9lAeFxyr2/orXbKY3TsY888khz4oknNnfddVdz3XXXNc973vPGWbClNK95zWuaK6+8srnkkkuaQw89tHn5y1/eqsxyTu/7+Mc/3hx99NEkCRAoKLDV7bTgKq3Mou2nV6YrFTJBAeFxgp2+6iXbKY3Tw8LjOI59S9nql1LhsVyfWDKBrsBWt1OSswXsp2cbeQWBZRUQHrfQM1/5yleal770pc3Xv/715j3veU9z+umnDy7lzjvvbF/7r//6r72viZmHs846q/dvP/zhD5s///M/b771rW8111xzTbPHHntsYW2n9xY7pa33+aOPPtpce+21zSc/+cnm7rvvbh566KF2YbvttlvzjGc8o/nd3/3d5pWvfGXzzGc+c+uNeOe6mcff//3fb172spc1P/7xj3eaefyf//mfti9iRjJmgO+77741vQMOOKCdDX7FK17Rzl7GuPdDgMB4Anl43Gg7Ha/F6SzJfno6fa3S1RMQHrfQp+9617va082e+MQntl+i44vdnnvu2bukv/mbv2nD41577dU85SlP2ek1J598cvtFsvuzY8eO5iMf+Uhz5plnNr/zO78jPG6in+yUNoGVvfQzn/lM88Y3vrH5l3/5l+bXfu3Xmt/8zd9s/x0B8rDDDmv+/d//vQ2UP/ETP9EeMDn//PObn/7pn95aYxN/18UXX9y86U1vaq644ormRS96UXPsscc2//u//9vE6aj77LNPqxMHns4444zm85//fPu73/qt32oeeOCB5otf/GJz1FFHNd///vebOJAVofNP//RP28+koc+hiXMrn8CWBObZTre0YG9qD3bF9xw/BAjUJyA8brLPHn744fb6pB/96EftF7r4wh0zNS94wQt6l/Tud7+7ueCCC5oPfehDzZ/8yZ/M1Vp8Gbz88sub2HHFF/cjjzxSeJxL7v97kZ3SJrD+/5feeuutzZ/92Z+1gSRmu+OAxn//93/vdM3jV7/61ebss89ubr755vb/Y4x++9vfbl7ykpc0//mf/9mO84MOOmjdCjz++ONNHCT52te+1v79F37hF5pjjjmm2XvvvXca10Onysb6RJv5NYFxYObNb35z81//9V/t7+Mnts04oNOdqU/LjfCVB7Q4EBR1dK8hjC81f/EXf9H+r7v9RYiO7fqmm25aNxOYip5ne/3Yxz7WzuCGxx/8wR80J510UhsC03p/85vfbH8X3qeddlpz3nnnNbvvvvvajGVa31iX+Hy5/vrr24NUV111VfOzP/uza/5hf/XVV7d/T8H/Oc95TtvXxx13XHsgIP2ERbz/gx/8YDvL+b73va/9//3337/trziQ9XM/93Nrr7/99ttb73vuuacNtlHTL//yL6/r+//4j/9o2/nSl77UPPe5z12zT+89/PDD2wCd/9xyyy3tePnJn/zJdf0dY+DLX/5yaxQH1j784Q839957bxP1xLW58Z689lhmmMZ6vf/9718L2jFjGzO93dfn9eTrEwf+Yt2jD377t3973bpG/4Rb1Bd9FjP0Q8vvG8O5fYzD/EyUrYzNWF70WVxP+6lPfaodn3EgKK6PPeecc9b130afEjFuol9iLMQZNrGve/GLX9y7jO9973vNpZde2nz6059uvvGNbzSPPfZY2+Yf//EfN294wxuaX/3VX103xrrbW9jF2TdxkCTfDtPYveGGG9ozd2IbjvWIsx/i9c961rN26ou3vvWtzec+97m236PP4rPsiCOOWDcrv5nlztpON/9J6x1JwH7aWCBQr4DwuMm+ix1yfOmILyvPf/7z23/HaWOxo+87bSy+MPzf9s4n5Lvh/eOfJElZEfmTRJLYyEYsWBChbCysbAglkR0b5W9KQrFSshSppx4WEklsLCwlK1LyZ2dh+Xx7ze933d955plzPufPfM89z3O/Tincn5kz53XNOTPvua655ssvv0yTNwazfReTQQbATz75ZHfTTTftfvvtt+pkeF89R/nvDkrzrB/CCjGEGGRyB8MhIffjjz8moYJYZOHktttuS5O5119/PU04H3/88ZMaEGHeeNARJ3/88cdq8YhgRQAwccUr+thjj+3+/vvvZuLxhx9+2D300EPJ85qLQULIed+Z6N5yyy27G2+88UCA0RYm0ISQ7gsz//bbb9PE+p133knfhSeffDJ5HuFHuDpCjQUkhOMbb7xx4OGt7Xn8888/U5tYAKA8XLj4duAhPnbsWPqG3HrrraluJteILryaiJXwHvMNQ3TwXJ9++mnyPBOqzOT++++/TyIXQYkw4AqxxYIaFwINkZlfiAG+lQiKKeKRiT22RFRfffXVp4hHuF133XVp0Y72IOy++uqr3U8//ZS8r+++++6B95UQbPolbb7qqqt2hB2ec845O+pAYNFW/hbe2ngeFjcQwyE+WfSgP1x55ZWpv2Nzrg8//HD39NNPp3+/4447Uj2w+Prrr5No42+vvfZauidXK/E41De5B+8w0QO8Y4Q0w4r3lWdDbL3//vsH9hv6ShAqzTfg7bffTjZjHILBd999lzzk2Dm2UOSLHHE/+hh9hveeMfKDDz5I7LhKQRz2xpsOQ8ZT2MPx0UcfTWIy3jPKhy0uv/zy9I6FmI/Fr99//31377337s4666zdF198ke7JexT9cm69Y+/pvK+svy4JOE7bJyRw+hJQPM6wHd4IJiMMhqzmM7CyGvvPP/+kVXAmWvmFF4dJHZMYVsqZ6Oy7mGAgNJm4PvHEE2niVfPQ7KvnKP/dQWme9REGCI7zzjtvxyr/tddemyoYEo+8B4gSJuqvvvpq8kawQEKfRaDwbuQeICaML7zwwoGwYWK91vPIOxLCgLBPrpj8r/U8Mnl+5pln0vNx5eIRccU7Woq6ffefYxG8o0zSf/3111OiGoYS5sSknAk3bSQyAq/Lm2++mWzFokDYJEQlHj7EY4TNRx18p15++eXk+eRdYoKPjZmEh7eZ/x+8EZOIFSb/1BFX9BMW3P7999/kgQqv75Dnke/oU089lRYCauKRZ8MTiqDGs8X1119/pQWLzz///KTn4TfPP/988jxRDlHIlYvK2vOU3tDcC42XF280NsLbjnBHTLFgENfPP/+cvvs8c/4+tRCPY32TBQHeQTzBuf1oP55B2n3//fef4p0u+ybil3rwoDLWXXTRRelbgLeaxZGIoonxkAUhOLPgEQuoeTupg/q4SvEY9+JdznMH0NdYUCkXOLgnfZb+GLZArDJWwppysOdirzDvA4tbiObzzz8//X1qvXPeWX87n4Dj9HxmlpBALwQUjzMsQUgOEwYGoRCDL774YhrEaolz8FI88MADu0suuSRNeI4fP55CgIbCwGjKSy+9lEQpEx4meUOT7BnNPnI/dVCaZ3K83PQzwqqZ6MXe3LFsqzEJZNKOtyvCuZnAMrkklJAr6sBTGGGNa8Ujk1oWVZg05vuNW4nHzz77LE06EaWEyuZilIknE1C8ToRj5tfY/edYJOrBDh9//PGB14Y6hsRj2DCELt8evMPUgbcMz1t+xaQdzxRC/MILLzyY2D/yyCPJIxoeM8rFt48w17BjtBMPIF5T7pkvkkUZPJh4objGxGN4kwnPRXghgvIw5Xh2FiLYb1t7HvodHinKs7BHX6sdfxJtI7wxBN5YKG3wjf6OUEWc4xWjP+RRJ3NCr+MZ4n3aF7Y61jdDGNXsF6HjePgiWmCoTyK6CVfl+UL05X2Pv+M1Z0sFPHj3YVyGLO97pvvuuy8JTrjni694qfn/eC9ZwCmPCCptQbQO4vHss89OC1f0Za6wJ+L3o48+St7SOfXOeWf97XwCjtPzmVlCAr0QUDzOsER4HfLJS0zCbrjhhlMS54Q3hlVqBCMTjTxsqgwDK5syNsme0ewj91MHpXkmx5vAJJE+nE/+x8RjJJLAW8DCCVdtISUmcIiaCO1eIx4RBoiK8DzkyaZaiMd4ZvZ78mx4wXLxyF5HvJK1LMmtxGNkaIZpuYd0SDwi6AjbZBEALwuhnIhHFrv4bpUh9REVwWJWhNTHZL8mjBHqhJMipmOPdy622OfKwle+/5t62SeIdxoP6D7xyP0RQIRLYufyfFGeHdHGPfBw5xeeSrzneEARg3gX+W++u/mCSJTBg4XwQbSEJ21IPCIwEVJ472p2p8+w0Ed72QMZIZuImFL8lvt254jHsb5J8jbsA7ea/bhPvLMh/qZ+JWBFf0Kgsb+4Jj7xNCImCfMmTBaRCgfe9ZogZlEEMYcN6LO0rbbtA/bYlHrx6FIv/xAuG0K+9hzY/7nnnkuLIDUxvbTeqcz83X4CjtP7GfkLCfRKQPE40TJDK7fx/xGKrHpGCF1MlJjk3n333SeFjeVhYExQmZTkq/zRJMXjROMUP3NQmsctvDCE/+UTwyHxGH0ewZKHpMXkmz1SEbqKoCSsLRcV0a8Jlx26hkIW4/cIEkLd8oQvLcQjXlRC/t56663dpZdeesoeyrgHyVxeeeWV3V133ZXCfblaicfw4rKvMt/DyD1q4jHCB/mORChfLHRFWHHJuSYGY89jTZzV7p2LLSbyiFWEAOGREUqIrREGeHLHxGPs4yP0FcFJiGRNPNJnSm8s9ZZ9FXHMggiJYmrimTKEWrIQGH24tueR38WeQfbXvffeeweeYAQN33cWEPGWcZEwhzBetjJw1TynY2/nmOdxrG9SJ9542nLPPffsLrjgglNuw35APHBjoqssFAsK/H+SJfHf7EsMoYdI432hz8SxPvwWBkToYNfaM8V9GP/oo3DLL8Qowo9/iGaIi4Q5RPIgTGvPUX5bGHtZTIktI0vrnfdF9ddTCDhOT6HkbyTQJwHF40S7hIcxwqLyMxfHwoWGqo8JO3+vTYb4/4rHicYpfuagNI8b4oNJMJO8PInIkHiMRCHs8c2TYZRZVUmSQTbOmERHYpLo14QWklCDcLO4CH9ENPG3cuKN1wlhQrIUkmHgzcLbFtda8UhCEQQHz8VEnVDLMnsrrPDuIDzyMxdz4lOyre6zEPdnP16Z5KQmHiNZCHVGEpGp4hHWIRYj22otzJO6y3vn4pFkSYgKRBTl8QTi9WSPHaImEpbUwlYR6oQTkpwELyCinTI18Ui21TxbbnBcIx7DUzeUbTXuQUZtvHZ4WUPs0gcQqGwzIDyXtrPfdKj9fOvZq5lnraV+PMCxZzPO/c33B+7rm9TBPUmYs++aIx7JaMzeWPbf4n1EvMV+/zy5EVE02JgQU8JXEa9jYav0T5Ic0V/xEOb7JfPvEVs44Mue0muuuSbtv2QvI/eqPQdJvPgu0P/oT4S04pFloYcFn/jOza13H1P/Pp+A4/R8ZpaQQC8EFI8TLRGr1GM/J0Qq3+819tuxkMAop3icaBzF4zJQWak8CyETQTI2slCCYGASzySPMDy8iKzk8+9M0ti3lF8hWghlJdwTMYZ3ISbE/HZN2GrsrSIkEU9KnnFxjXhkUs9zIiSizrH6mEwTDsdvIsvknGyr+wyWZ7xEOBAqy55UJr8wpr1MgBF+ZAxFsLAPkEQ+XHG+7FDYaoR5Mrkuw1bLY0uoj3BFnjfEJkKqDPPMxSchhrQn9luOiUf2heOZJCyS51yyZxCvF3sc8ThOCVsNzysc94WtYgv6BFmweSfogwhevJZ4SfGu/y/3PE7pmxG2mi8G7Otjc/6OoOO9J4wbkcr7Hdsy2IMMk4svvvikKvftecRrj7BDnOYZURGVDz74YDpuA1tSf36Vex6HnoPvA0mfoo+zl7ZFvXO4+dthAopHe4cETl8CiscJtovMeiSEIAzm3HPPPaUUK9HffPNNmlDkyRyYlJPlsDxMPSZInL02dIyH4nGCcSo/cVBaxm0oBK2sjXeAULPynDV+FxM/ErEw6WNiXi6orBWPiDVCZhEbhInjpeP9WiMeWRziPUSU8u95NtEye2sIbTygeZbJVmGrwXsoxK60B3upCVfNz7OLfZP7EuaQSCf2ucZkHy9QefRQLVlYKR7jv1ks4P5kIkVU4KEaEo/YEm8le0zzzJ5DnjuEcy05WUSGsBeS0FL68pSEOdw39pWOJcyJPaKcN8gzIYppS01ox9E0CPoWex6n9s2wX43P1C8C3EiGg+BCLOZJcMr+jegb8gDmoe1jobhRJ17FsP/Ye5SHaIfnkWy+CHvszaJXfuXecsJdh86BrdU7lZm/W0bAcXoZN0tJoAcCiscJVmBSySDEqmWZhTCKx/mPTJhJwkBaeFZVWTVm1bo8/ywmGOzFGDrGQ/E4wTiKx2WQRkoxgeQsQM5147w/vDqINELHOKCb/Uy15BZUGXvdCHEjNI8kPHgr8z29LcRjLL6QPIPMkOzzWiMe8aRyREmembRWH88XR2Cwx49niyMwWovHXESyMIU9SG7EM3OUB0cQYBMY53s/ww5TjuogDBhvH1eIj/IojHyPdi4ESrEVezURjXhh+f7hcQ57c48ybJUyCH88eZG9dszziGBDcLJgQPgoVxzVgdeN73PUM+WojvwsxjHxGGebIjLwhvGNZ6GwPLIl2oJ3rLZvd0nCnKl9M9pIyDec6B9xRbvYM8oexQgnLz8DuYhCtD777LPJPvlxH0QT4CnkHeffr7jiiiT8EIBceAwJYyaBEgsDY+IxzjRljIxjY2IBin2jCFi+OVy0gbGSxY3I9Brh5byL7LHkfYxzOOMMSjyQkZWZMXxqvc0/rFZ4EgHFox1CAqcvAcXjHtvlZ0iVySvyorUkFyE6y3PG8nPJ8slb2RTF47IXy0FpGbey1JTQ6tqdot/zt9o700I8UjfHFjz88MO7m2++OS3Q4MVnUkwI39BeSoQxnlPKcRh5CCYSduRnxFF/TQwifvCsMaHPD4wf+n0bS/y3lqFsq7X7xHmOx44dSyHEeOX4nrEwQBISQkV5fsL5cvF4/fXXp+yhhC+zuMXeMUJ62V/K0Qmxd7UmtiK8PxdOY+KRzLmEFob3mHaMiUcW4/CmIkpIrsOiBM+DYCWsluQ8EeWRn+eIh/X2228/Kds1+zGxOQfO5/Zj4Y++ERffdjybPEeITSJN8I6yVzEOsafd7MVlzyyCivcg90wuPedxat+kvXjk8b7x7LwXLIjk7S9tWOs3eI15NjLHxrPhecbesIpzLePsR5LwlHzx1LLgRN+L6IC8j+VcYv8oeQR4p7hHLHzQ/7Azf+N3eH7xMGJzFjl47+m/7JvElrDK+wX9PM6KZFyYU2+e16D1e2x9u7QAyYKAlwQkcPoRUDzusVl4CNmoz2rzZZddNlgiJqIMboRO4Q0g6QWp52NwpfDQ5E3x2OYFclBqw3GpePzll18OvD9xJmDeolbiMRJ2ED6Kx4lkHohHBMm+Kyav8c7WktyU4pFFH4QOk+pSaPYoHmkTjEhwgpBBXPNNYt8e2Uzx0OUey2BBGCdnLuLRRRzxe8QECXHCy5o/75133pnEH1fsg0OoRsbdMfFImTJBz749j9ia++CFwsOJpwlhVj4PdeMFow8iePiW899EhxCePPQ8tf5TY0A/IFyS7zlt5jd8+1mYIBKFw+oj+y1tWSoep/TNXOjQLmyJtxr2/I228W7AKLfh0HtC2CrH0pCAhzoQcSwmRBKnKAd/BDu24He8g4hFQkoR9nj62AtZniWai8c8QU54Kem39Knog3F/GCKI8XjGsSz8d9iZMohMFhdqNptb777viH9fTsBxejk7S0oiKXNvAAAGJklEQVTgsAkoHvdYICZUrOby72NXCE1+E/u82LfEwMpEikGNi8kOExcmGuVeyKmT7MPuOD3f30HpcK0T++Pw9JR75w63ZbtdJNuo7VU77LYd9v3z7J5kuOztGhNfvbXV9khAAuMEHKftIRI4fQkoHk9f29nyAQIOSofXNfAAEIrNHqjaYeKH17L/u7PicdgCisfD7p3eXwJHh4Dj9NGxtU965hFQPJ55Nj3yT+SgtH0XOH78eArhI1kH4ZF5IpLtWzN8R8Wj4rGn/mhbJHBUCThOH1XL+9xnAgHF45lgRZ/hJAIOStt3CA5vZz8g5x+SlIOjPCKxyvat8Y5LCOh5XELNMhKQwBICjtNLqFlGAn0QUDz2YQdb0ZCAg1JDmFYlAQlIQAISaEzAcboxUKuTwIYEFI8bwvZW2xBwUNqGs3eRgAQkIAEJLCHgOL2EmmUk0AcBxWMfdrAVDQk4KDWEaVUSkIAEJCCBxgQcpxsDtToJbEhA8bghbG+1DQEHpW04excJSEACEpDAEgKO00uoWUYCfRBQPPZhB1vRkICDUkOYViUBCUhAAhJoTMBxujFQq5PAhgQUjxvC9lbbEHBQ2oazd5GABCQgAQksIeA4vYSaZSTQBwHFYx92sBUNCTgoNYRpVRKQgAQkIIHGBBynGwO1OglsSEDxuCFsb7UNAQelbTh7FwlIQAISkMASAo7TS6hZRgJ9EFA89mEHW9GQgINSQ5hWJQEJSEACEmhMwHG6MVCrk8CGBBSPG8L2VtsQcFDahrN3kYAEJCABCSwh4Di9hJplJNAHAcVjH3awFQ0JOCg1hGlVEpCABCQggcYEHKcbA7U6CWxIQPG4IWxvtQ0BB6VtOHsXCUhAAhKQwBICjtNLqFlGAn0QUDz2YQdb0ZCAg1JDmFYlAQlIQAISaEzAcboxUKuTwIYEFI8bwvZW2xBwUNqGs3eRgAQkIAEJLCHgOL2EmmUk0AcBxWMfdrAVDQk4KDWEaVUSkIAEJCCBxgQcpxsDtToJbEhA8bghbG+1DQEHpW04excJSEACEpDAEgKO00uoWUYCfRBQPPZhB1vRkICDUkOYViUBCUhAAhJoTMBxujFQq5PAhgQUjxvC9lbbEHBQ2oazd5GABCQgAQksIeA4vYSaZSTQBwHFYx92sBUNCTgoNYRpVRKQgAQkIIHGBBynGwO1OglsSEDxuCFsb7UNAQelbTh7FwlIQAISkMASAo7TS6hZphUB+p/XOgIQPHHixIl1tVhaAp0QcFDqxBA2QwISkIAEJFAh4DhttzhMAva/dfT1PK7jZ+kOCfhR6NAoNkkCEpCABCTw/wQcp+0Kh0nA/reOvuJxHT9Ld0jAj0KHRrFJEpCABCQgAcWjfaADAs4T1xlB8biOn6U7JOBHoUOj2CQJSEACEpCA4tE+0AEB54nrjKB4XMfP0h0S8KPQoVFskgQkIAEJSEDxaB/ogIDzxHVGUDyu42fpDgn4UejQKDZJAhKQgAQkoHi0D3RAwHniOiMoHtfxs3SHBPwodGgUmyQBCUhAAhJQPNoHOiDgPHGdERSP6/hZukMCfhQ6NIpNkoAEJCABCSge7QMdEHCeuM4Iisd1/CzdIQE/Ch0axSZJQAISkIAEFI/2gQ4IOE9cZwTF4zp+lu6QgB+FDo1ikyQgAQlIQAKKR/tABwScJ64zguJxHT9Ld0jAj0KHRrFJEpCABCQgAcWjfaADAs4T1xlB8biOn6U7JOBHoUOj2CQJSEACEpCA4tE+0AEB54nrjKB4XMfP0h0S8KPQoVFskgQkIAEJSEDxaB/ogIDzxHVGUDyu42fpDgn4UejQKDZJAhKQgAQkoHi0D3RAwHniOiMoHtfxs3SHBPwodGgUmyQBCUhAAhJQPNoHOiDgPHGdERSP6/hZukMCfhQ6NIpNkoAEJCABCSge7QMdEHCeuM4Iisd1/CzdIQE/Ch0axSZJQAISkIAEFI/2gQ4IOE9cZwTF4zp+lu6QgB+FDo1ikyQgAQlIQAKKR/tABwScJ64zguJxHT9Ld0jAj0KHRrFJEpCABCQgAcWjfaADAs4T1xnhQDyuq8bSEpCABCQgAQlIQAISkIAEJHCmE/gPpmhpZwzKcZkAAAAASUVORK5CYII=;movable=1;resizable=1;rotatable=1;deletable=1;editable=1;locked=0;connectable=1;" vertex="1" parent="1">
          <mxGeometry x="130" y="310" width="1540" height="1070" as="geometry" />
        </mxCell>
        <mxCell id="gx2m8ANJ89_CgAaHZRdq-4" style="edgeStyle=orthogonalEdgeStyle;rounded=0;orthogonalLoop=1;jettySize=auto;html=1;exitX=0;exitY=0.5;exitDx=0;exitDy=0;entryX=0;entryY=0.5;entryDx=0;entryDy=0;" parent="1" target="MUi1yYkGbGkddvzHHs3n-1" edge="1">
          <mxGeometry relative="1" as="geometry">
            <mxPoint x="160" y="805" as="sourcePoint" />
          </mxGeometry>
        </mxCell>
        <mxCell id="gx2m8ANJ89_CgAaHZRdq-11" style="edgeStyle=orthogonalEdgeStyle;rounded=0;orthogonalLoop=1;jettySize=auto;html=1;exitX=1;exitY=0.25;exitDx=0;exitDy=0;entryX=0;entryY=0.25;entryDx=0;entryDy=0;" parent="1" source="MUi1yYkGbGkddvzHHs3n-1" target="gx2m8ANJ89_CgAaHZRdq-10" edge="1">
          <mxGeometry relative="1" as="geometry">
            <Array as="points">
              <mxPoint x="650" y="793" />
              <mxPoint x="650" y="845" />
            </Array>
          </mxGeometry>
        </mxCell>
        <mxCell id="gx2m8ANJ89_CgAaHZRdq-26" style="edgeStyle=orthogonalEdgeStyle;rounded=0;orthogonalLoop=1;jettySize=auto;html=1;entryX=0.75;entryY=1;entryDx=0;entryDy=0;" parent="1" target="MUi1yYkGbGkddvzHHs3n-1" edge="1">
          <mxGeometry relative="1" as="geometry">
            <mxPoint x="300" y="850" as="sourcePoint" />
            <Array as="points">
              <mxPoint x="435" y="850" />
            </Array>
          </mxGeometry>
        </mxCell>
        <mxCell id="MUi1yYkGbGkddvzHHs3n-1" value="&lt;span style=&quot;font-size: 14px;&quot;&gt;Обработка запроса расходных материалов&lt;br&gt;&lt;/span&gt;" style="html=1;align=center;verticalAlign=top;rounded=1;absoluteArcSize=1;arcSize=10;dashed=0;whiteSpace=wrap;" parent="1" vertex="1">
          <mxGeometry x="270" y="780" width="220" height="50" as="geometry" />
        </mxCell>
        <mxCell id="gx2m8ANJ89_CgAaHZRdq-5" value="&lt;font style=&quot;font-size: 11px;&quot;&gt;Запрос расходных материалов&lt;/font&gt;" style="text;html=1;strokeColor=none;fillColor=none;align=center;verticalAlign=middle;whiteSpace=wrap;rounded=0;" parent="1" vertex="1">
          <mxGeometry x="140" y="790" width="140" height="30" as="geometry" />
        </mxCell>
        <mxCell id="gx2m8ANJ89_CgAaHZRdq-7" style="edgeStyle=orthogonalEdgeStyle;rounded=0;orthogonalLoop=1;jettySize=auto;html=1;exitX=0;exitY=0.75;exitDx=0;exitDy=0;entryX=0;entryY=0.75;entryDx=0;entryDy=0;" parent="1" target="gx2m8ANJ89_CgAaHZRdq-6" edge="1">
          <mxGeometry relative="1" as="geometry">
            <mxPoint x="150" y="917.5" as="sourcePoint" />
          </mxGeometry>
        </mxCell>
        <mxCell id="gx2m8ANJ89_CgAaHZRdq-22" style="edgeStyle=orthogonalEdgeStyle;rounded=0;orthogonalLoop=1;jettySize=auto;html=1;exitX=0.5;exitY=1;exitDx=0;exitDy=0;entryX=0.5;entryY=1;entryDx=0;entryDy=0;startArrow=classic;startFill=1;" parent="1" source="gx2m8ANJ89_CgAaHZRdq-6" target="gx2m8ANJ89_CgAaHZRdq-10" edge="1">
          <mxGeometry relative="1" as="geometry" />
        </mxCell>
        <mxCell id="gx2m8ANJ89_CgAaHZRdq-6" value="&lt;span style=&quot;font-size: 14px;&quot;&gt;Оценка текущего уровня запасов&lt;br&gt;&lt;/span&gt;" style="html=1;align=center;verticalAlign=top;rounded=1;absoluteArcSize=1;arcSize=10;dashed=0;whiteSpace=wrap;" parent="1" vertex="1">
          <mxGeometry x="280" y="880" width="220" height="50" as="geometry" />
        </mxCell>
        <mxCell id="gx2m8ANJ89_CgAaHZRdq-8" value="&lt;font style=&quot;font-size: 11px;&quot;&gt;Данные о&lt;br&gt;расходных материалах&lt;br&gt;&lt;/font&gt;" style="text;html=1;strokeColor=none;fillColor=none;align=center;verticalAlign=middle;whiteSpace=wrap;rounded=0;" parent="1" vertex="1">
          <mxGeometry x="140" y="900" width="140" height="30" as="geometry" />
        </mxCell>
        <mxCell id="gx2m8ANJ89_CgAaHZRdq-17" style="edgeStyle=orthogonalEdgeStyle;rounded=0;orthogonalLoop=1;jettySize=auto;html=1;exitX=1;exitY=0.5;exitDx=0;exitDy=0;" parent="1" source="gx2m8ANJ89_CgAaHZRdq-10" target="gx2m8ANJ89_CgAaHZRdq-16" edge="1">
          <mxGeometry relative="1" as="geometry" />
        </mxCell>
        <mxCell id="gx2m8ANJ89_CgAaHZRdq-10" value="&lt;span style=&quot;font-size: 14px;&quot;&gt;Составление списка необходимых расходных материалов&lt;br&gt;&lt;/span&gt;" style="html=1;align=center;verticalAlign=top;rounded=1;absoluteArcSize=1;arcSize=10;dashed=0;whiteSpace=wrap;" parent="1" vertex="1">
          <mxGeometry x="670" y="830" width="220" height="60" as="geometry" />
        </mxCell>
        <mxCell id="gx2m8ANJ89_CgAaHZRdq-12" style="edgeStyle=orthogonalEdgeStyle;rounded=0;orthogonalLoop=1;jettySize=auto;html=1;exitX=1;exitY=0.75;exitDx=0;exitDy=0;entryX=0.003;entryY=0.868;entryDx=0;entryDy=0;entryPerimeter=0;" parent="1" source="gx2m8ANJ89_CgAaHZRdq-6" target="gx2m8ANJ89_CgAaHZRdq-10" edge="1">
          <mxGeometry relative="1" as="geometry">
            <Array as="points">
              <mxPoint x="650" y="918" />
              <mxPoint x="650" y="882" />
            </Array>
          </mxGeometry>
        </mxCell>
        <mxCell id="gx2m8ANJ89_CgAaHZRdq-13" value="&lt;font style=&quot;font-size: 11px;&quot;&gt;Данные о текущем уровне запасов&lt;br&gt;&lt;/font&gt;" style="text;html=1;strokeColor=none;fillColor=none;align=center;verticalAlign=middle;whiteSpace=wrap;rounded=0;" parent="1" vertex="1">
          <mxGeometry x="530" y="900" width="100" height="30" as="geometry" />
        </mxCell>
        <mxCell id="gx2m8ANJ89_CgAaHZRdq-15" value="&lt;font style=&quot;font-size: 11px;&quot;&gt;Информация о том, какие расходные материалы нужны&lt;br&gt;&lt;/font&gt;" style="text;html=1;strokeColor=none;fillColor=none;align=center;verticalAlign=middle;whiteSpace=wrap;rounded=0;" parent="1" vertex="1">
          <mxGeometry x="490" y="780" width="160" height="30" as="geometry" />
        </mxCell>
        <mxCell id="gx2m8ANJ89_CgAaHZRdq-19" style="edgeStyle=orthogonalEdgeStyle;rounded=0;orthogonalLoop=1;jettySize=auto;html=1;exitX=1;exitY=0.5;exitDx=0;exitDy=0;entryX=0.009;entryY=0.487;entryDx=0;entryDy=0;entryPerimeter=0;" parent="1" source="gx2m8ANJ89_CgAaHZRdq-16" edge="1" target="QvXpTpCXxzrsCJCGJff7-2">
          <mxGeometry relative="1" as="geometry">
            <mxPoint x="1360" y="860" as="targetPoint" />
          </mxGeometry>
        </mxCell>
        <mxCell id="gx2m8ANJ89_CgAaHZRdq-23" style="edgeStyle=orthogonalEdgeStyle;rounded=0;orthogonalLoop=1;jettySize=auto;html=1;exitX=0.5;exitY=1;exitDx=0;exitDy=0;entryX=0.5;entryY=1;entryDx=0;entryDy=0;" parent="1" target="gx2m8ANJ89_CgAaHZRdq-16" edge="1">
          <mxGeometry relative="1" as="geometry">
            <mxPoint x="780" y="950" as="sourcePoint" />
          </mxGeometry>
        </mxCell>
        <mxCell id="gx2m8ANJ89_CgAaHZRdq-16" value="&lt;span style=&quot;font-size: 14px;&quot;&gt;Составление заказа&lt;br&gt;&lt;/span&gt;" style="html=1;align=center;verticalAlign=top;rounded=1;absoluteArcSize=1;arcSize=10;dashed=0;whiteSpace=wrap;" parent="1" vertex="1">
          <mxGeometry x="1030" y="840" width="220" height="40" as="geometry" />
        </mxCell>
        <mxCell id="gx2m8ANJ89_CgAaHZRdq-18" value="&lt;font style=&quot;font-size: 11px;&quot;&gt;Список необходимых&lt;br&gt;расходных материалов&lt;br&gt;&lt;/font&gt;" style="text;html=1;strokeColor=none;fillColor=none;align=center;verticalAlign=middle;whiteSpace=wrap;rounded=0;" parent="1" vertex="1">
          <mxGeometry x="880" y="845" width="160" height="30" as="geometry" />
        </mxCell>
        <mxCell id="gx2m8ANJ89_CgAaHZRdq-20" value="&lt;font style=&quot;font-size: 11px;&quot;&gt;Сформированный&lt;br&gt;заказ&lt;br&gt;&lt;/font&gt;" style="text;html=1;strokeColor=none;fillColor=none;align=center;verticalAlign=middle;whiteSpace=wrap;rounded=0;" parent="1" vertex="1">
          <mxGeometry x="1270" y="845" width="160" height="30" as="geometry" />
        </mxCell>
        <mxCell id="gx2m8ANJ89_CgAaHZRdq-24" value="&lt;font style=&quot;font-size: 11px;&quot;&gt;Система&lt;br&gt;&lt;/font&gt;" style="text;html=1;strokeColor=none;fillColor=none;align=center;verticalAlign=middle;whiteSpace=wrap;rounded=0;" parent="1" vertex="1">
          <mxGeometry x="840" y="930" width="100" height="30" as="geometry" />
        </mxCell>
        <mxCell id="gx2m8ANJ89_CgAaHZRdq-27" value="&lt;font style=&quot;font-size: 11px;&quot;&gt;Система&lt;br&gt;&lt;/font&gt;" style="text;html=1;strokeColor=none;fillColor=none;align=center;verticalAlign=middle;whiteSpace=wrap;rounded=0;" parent="1" vertex="1">
          <mxGeometry x="320" y="830" width="100" height="30" as="geometry" />
        </mxCell>
        <mxCell id="QvXpTpCXxzrsCJCGJff7-4" style="edgeStyle=orthogonalEdgeStyle;rounded=0;orthogonalLoop=1;jettySize=auto;html=1;exitX=0.5;exitY=1;exitDx=0;exitDy=0;entryX=0.5;entryY=1;entryDx=0;entryDy=0;" edge="1" parent="1" target="QvXpTpCXxzrsCJCGJff7-2">
          <mxGeometry relative="1" as="geometry">
            <mxPoint x="1140" y="950" as="sourcePoint" />
          </mxGeometry>
        </mxCell>
        <mxCell id="QvXpTpCXxzrsCJCGJff7-2" value="&lt;span style=&quot;font-size: 14px;&quot;&gt;Формирование&lt;br&gt;отчета&lt;br&gt;&lt;/span&gt;" style="html=1;align=center;verticalAlign=top;rounded=1;absoluteArcSize=1;arcSize=10;dashed=0;whiteSpace=wrap;" vertex="1" parent="1">
          <mxGeometry x="1430" y="840" width="220" height="40" as="geometry" />
        </mxCell>
        <mxCell id="QvXpTpCXxzrsCJCGJff7-3" value="" style="endArrow=classic;html=1;rounded=0;" edge="1" parent="1">
          <mxGeometry width="50" height="50" relative="1" as="geometry">
            <mxPoint x="1280" y="860" as="sourcePoint" />
            <mxPoint x="1430" y="900" as="targetPoint" />
            <Array as="points">
              <mxPoint x="1280" y="900" />
            </Array>
          </mxGeometry>
        </mxCell>
      </root>
    </mxGraphModel>
  </diagram>
  <diagram id="30CSTh-y9SVbLgZfz-_A" name="Страница — 2">
    <mxGraphModel dx="1624" dy="840" grid="1" gridSize="10" guides="1" tooltips="1" connect="1" arrows="1" fold="1" page="1" pageScale="1" pageWidth="3300" pageHeight="2339" math="0" shadow="0">
      <root>
        <mxCell id="0" />
        <mxCell id="1" parent="0" />
      </root>
    </mxGraphModel>
  </diagram>
</mxfile>
